<svg width="80" height="80" viewBox="0 0 80 80" fill="none" xmlns="http://www.w3.org/2000/svg">
<path opacity="0.3" d="M80 40C80 62.0914 62.0914 80 40 80C17.9086 80 0 62.0914 0 40C0 17.9086 17.9086 0 40 0C62.0914 0 80 17.9086 80 40ZM10.9071 40C10.9071 56.0675 23.9325 69.0929 40 69.0929C56.0675 69.0929 69.0929 56.0675 69.0929 40C69.0929 23.9325 56.0675 10.9071 40 10.9071C23.9325 10.9071 10.9071 23.9325 10.9071 40Z" fill="#2F2E30"/>
<circle cx="40" cy="40" r="29" fill="black"/>
<path d="M39.9831 22.5875C41.0045 22.5875 42.0041 22.7358 42.7575 23.0172V23.0182L51.0749 26.1353H51.0759C53.2954 26.9621 55.0505 29.5077 55.0505 31.8668V44.2496C55.0505 45.3368 54.7063 46.5895 54.1237 47.7486C53.5777 48.8349 52.8403 49.8025 52.0309 50.4557L51.8679 50.5826L44.7009 55.9322L44.695 55.9371C43.4123 56.9262 41.7237 57.4332 39.9997 57.4332C38.277 57.4331 36.5846 56.9264 35.2643 55.9478H35.2634L28.0993 50.5992C27.2266 49.9485 26.4253 48.9209 25.8425 47.7594C25.2596 46.5977 24.9167 45.3448 24.9167 44.2662V31.8668C24.9167 29.5813 26.5634 27.1205 28.6843 26.2174L28.8913 26.1353H28.8923L37.2087 23.0182C37.9621 22.7366 38.9615 22.5875 39.9831 22.5875ZM40.0007 24.0855C39.3018 24.0875 38.5814 24.1702 37.988 24.3492L37.7419 24.4312L37.7409 24.4322L29.4245 27.5484H29.4235C28.596 27.86 27.8548 28.5225 27.3239 29.2906C26.7928 30.059 26.4333 30.9899 26.4333 31.8834V44.2662C26.4333 45.1607 26.7439 46.1894 27.2009 47.1012C27.6006 47.8987 28.1372 48.6562 28.739 49.1871L29.0007 49.401L36.1677 54.7506C37.2295 55.5445 38.6281 55.9253 40.0016 55.9254C41.2898 55.9254 42.6029 55.5903 43.6432 54.8951L43.8474 54.7516L43.8493 54.7506L51.0153 49.401L51.0163 49.4C51.731 48.8639 52.3666 48.005 52.822 47.0943C53.2773 46.1837 53.5837 45.1597 53.5837 44.2662V31.8668C53.5837 30.9808 53.2233 30.054 52.6931 29.2867C52.1958 28.5673 51.5142 27.938 50.7516 27.5982L50.5974 27.5338L50.5925 27.5318L42.2751 24.4146L42.2663 24.4117L42.0182 24.3326C41.4214 24.1621 40.7 24.0836 40.0007 24.0855Z" fill="#FAFAFA" stroke="#FAFAFA"/>
<path d="M44.4039 34.77C44.6739 34.5003 45.1154 34.4832 45.4068 34.7192L45.4635 34.77C45.7336 35.0402 45.7499 35.4824 45.5133 35.7739L45.4635 35.8296L38.2965 42.9966C38.1452 43.1478 37.9574 43.2163 37.7662 43.2163C37.5991 43.2162 37.4352 43.1637 37.2955 43.0493L37.2369 42.9966L34.5533 40.313C34.2835 40.043 34.2666 39.6015 34.5025 39.31L34.5533 39.2534C34.8234 38.9833 35.2657 38.9663 35.5572 39.2026L35.6129 39.2534L37.7662 41.4067L38.1207 41.0532L44.4039 34.77Z" fill="#FAFAFA" stroke="#FAFAFA"/>
</svg>
