<svg width="0" height="0" class="hidden">
  <symbol fill="none" xmlns="http://www.w3.org/2000/svg" viewBox="0 0 56 56" id="Camera">
    <g clip-path="url(#clip0_138_1570)">
      <path d="M11.6667 16.3333H14C15.2377 16.3333 16.4247 15.8416 17.2998 14.9665C18.175 14.0913 18.6667 12.9043 18.6667 11.6666C18.6667 11.0478 18.9125 10.4543 19.3501 10.0167C19.7877 9.57915 20.3812 9.33331 21 9.33331H35C35.6188 9.33331 36.2123 9.57915 36.6499 10.0167C37.0875 10.4543 37.3333 11.0478 37.3333 11.6666C37.3333 12.9043 37.825 14.0913 38.7002 14.9665C39.5753 15.8416 40.7623 16.3333 42 16.3333H44.3333C45.571 16.3333 46.758 16.825 47.6332 17.7001C48.5083 18.5753 49 19.7623 49 21V42C49 43.2377 48.5083 44.4246 47.6332 45.2998C46.758 46.175 45.571 46.6666 44.3333 46.6666H11.6667C10.429 46.6666 9.242 46.175 8.36683 45.2998C7.49167 44.4246 7 43.2377 7 42V21C7 19.7623 7.49167 18.5753 8.36683 17.7001C9.242 16.825 10.429 16.3333 11.6667 16.3333" stroke="black" stroke-width="2" stroke-linecap="round" stroke-linejoin="round"></path>
      <path d="M28 37.3333C31.866 37.3333 35 34.1993 35 30.3333C35 26.4673 31.866 23.3333 28 23.3333C24.134 23.3333 21 26.4673 21 30.3333C21 34.1993 24.134 37.3333 28 37.3333Z" stroke="black" stroke-width="2" stroke-linecap="round" stroke-linejoin="round"></path>
    </g>
    <defs>
      <clipPath id="clip0_138_1570">
        <rect width="56" height="56" fill="white"></rect>
      </clipPath>
    </defs>
  </symbol>
  <symbol fill="none" xmlns="http://www.w3.org/2000/svg" viewBox="0 0 29 25" id="Cart with buy">
    <path d="M3.97738 10.84C4.0176 10.3388 4.24513 9.87115 4.61465 9.53017C4.98417 9.18918 5.46857 8.9999 5.97138 9H18.0294C18.5322 8.9999 19.0166 9.18918 19.3861 9.53017C19.7556 9.87115 19.9832 10.3388 20.0234 10.84L20.8264 20.84C20.8485 21.1152 20.8133 21.392 20.7232 21.6529C20.6331 21.9139 20.4899 22.1533 20.3027 22.3562C20.1155 22.5592 19.8883 22.7211 19.6354 22.8319C19.3825 22.9427 19.1095 22.9999 18.8334 23H5.16738C4.8913 22.9999 4.61823 22.9427 4.36536 22.8319C4.11249 22.7211 3.88529 22.5592 3.69808 22.3562C3.51086 22.1533 3.36768 21.9139 3.27755 21.6529C3.18742 21.392 3.15229 21.1152 3.17438 20.84L3.97738 10.84V10.84Z" stroke="black" stroke-width="1.5" stroke-linecap="round" stroke-linejoin="round"></path>
    <path d="M16 12V7C16 5.93913 15.5786 4.92172 14.8284 4.17157C14.0783 3.42143 13.0609 3 12 3C10.9391 3 9.92172 3.42143 9.17157 4.17157C8.42143 4.92172 8 5.93913 8 7V12" stroke="black" stroke-width="1.5" stroke-linecap="round" stroke-linejoin="round"></path>
    <circle cx="22" cy="7" r="7" fill="#EDEDED"></circle>
    <path d="M19.4917 10V9.21C19.4917 8.72333 19.5751 8.32333 19.7417 8.01C19.9084 7.69667 20.1451 7.44333 20.4517 7.25C20.7651 7.05 21.1417 6.88333 21.5817 6.75L22.1917 6.56C22.4651 6.47333 22.6984 6.36667 22.8917 6.24C23.0917 6.11333 23.2451 5.95667 23.3517 5.77C23.4584 5.57667 23.5117 5.35333 23.5117 5.1V5.06C23.5117 4.66667 23.3784 4.36 23.1117 4.14C22.8451 3.91333 22.4951 3.8 22.0617 3.8C21.6151 3.8 21.2517 3.92 20.9717 4.16C20.6984 4.4 20.5617 4.75333 20.5617 5.22V5.38H19.5217V5.23C19.5217 4.72333 19.6317 4.29667 19.8517 3.95C20.0717 3.59667 20.3751 3.32667 20.7617 3.14C21.1484 2.95333 21.5817 2.86 22.0617 2.86C22.5417 2.86 22.9684 2.95 23.3417 3.13C23.7217 3.31 24.0184 3.56333 24.2317 3.89C24.4517 4.21667 24.5617 4.6 24.5617 5.04V5.13C24.5617 5.58333 24.4717 5.96 24.2917 6.26C24.1117 6.56 23.8617 6.80667 23.5417 7C23.2284 7.19333 22.8651 7.35667 22.4517 7.49L21.8617 7.67C21.5484 7.76333 21.2951 7.86667 21.1017 7.98C20.9151 8.08667 20.7751 8.21667 20.6817 8.37C20.5951 8.52333 20.5517 8.72 20.5517 8.96V9.06H24.5017V10H19.4917Z" fill="black"></path>
  </symbol>
  <symbol fill="none" xmlns="http://www.w3.org/2000/svg" viewBox="0 0 24 24" id="Cart">
    <path d="M3.97738 9.84C4.0176 9.33881 4.24513 8.87115 4.61465 8.53017C4.98417 8.18918 5.46857 7.9999 5.97138 8H18.0294C18.5322 7.9999 19.0166 8.18918 19.3861 8.53017C19.7556 8.87115 19.9832 9.33881 20.0234 9.84L20.8264 19.84C20.8485 20.1152 20.8133 20.392 20.7232 20.6529C20.6331 20.9139 20.4899 21.1533 20.3027 21.3562C20.1155 21.5592 19.8883 21.7211 19.6354 21.8319C19.3825 21.9427 19.1095 21.9999 18.8334 22H5.16738C4.8913 21.9999 4.61823 21.9427 4.36536 21.8319C4.11249 21.7211 3.88529 21.5592 3.69808 21.3562C3.51086 21.1533 3.36768 20.9139 3.27755 20.6529C3.18742 20.392 3.15229 20.1152 3.17438 19.84L3.97738 9.84V9.84Z" stroke="black" stroke-width="1.5" stroke-linecap="round" stroke-linejoin="round"></path>
    <path d="M16 11V6C16 4.93913 15.5786 3.92172 14.8284 3.17157C14.0783 2.42143 13.0609 2 12 2C10.9391 2 9.92172 2.42143 9.17157 3.17157C8.42143 3.92172 8 4.93913 8 6V11" stroke="black" stroke-width="1.5" stroke-linecap="round" stroke-linejoin="round"></path>
  </symbol>
  <symbol fill="none" xmlns="http://www.w3.org/2000/svg" viewBox="0 0 24 24" id="Cart=Off">
    <path d="M8.25 20.25C8.66421 20.25 9 19.9142 9 19.5C9 19.0858 8.66421 18.75 8.25 18.75C7.83579 18.75 7.5 19.0858 7.5 19.5C7.5 19.9142 7.83579 20.25 8.25 20.25Z" stroke="black" stroke-width="1.5" stroke-linecap="round" stroke-linejoin="round"></path>
    <path d="M18.75 20.25C19.1642 20.25 19.5 19.9142 19.5 19.5C19.5 19.0858 19.1642 18.75 18.75 18.75C18.3358 18.75 18 19.0858 18 19.5C18 19.9142 18.3358 20.25 18.75 20.25Z" stroke="black" stroke-width="1.5" stroke-linecap="round" stroke-linejoin="round"></path>
    <path d="M2.25 3.75H5.25L7.5 16.5H19.5" stroke="black" stroke-width="1.5" stroke-linecap="round" stroke-linejoin="round"></path>
    <path d="M7.5 12.5H19.1925C19.2792 12.5001 19.3633 12.4701 19.4304 12.4151C19.4975 12.3601 19.5434 12.2836 19.5605 12.1986L20.9105 5.44859C20.9214 5.39417 20.92 5.338 20.9066 5.28414C20.8931 5.23029 20.8679 5.18009 20.8327 5.13717C20.7975 5.09426 20.7532 5.05969 20.703 5.03597C20.6528 5.01225 20.598 4.99996 20.5425 5H6" stroke="black" stroke-width="1.5" stroke-linecap="round" stroke-linejoin="round"></path>
  </symbol>
  <symbol fill="none" xmlns="http://www.w3.org/2000/svg" viewBox="0 0 24 24" id="Cart1">
    <path d="M8.25 20.25C8.66421 20.25 9 19.9142 9 19.5C9 19.0858 8.66421 18.75 8.25 18.75C7.83579 18.75 7.5 19.0858 7.5 19.5C7.5 19.9142 7.83579 20.25 8.25 20.25Z" stroke="black" stroke-width="1.5" stroke-linecap="round" stroke-linejoin="round"></path>
    <path d="M18.75 20.25C19.1642 20.25 19.5 19.9142 19.5 19.5C19.5 19.0858 19.1642 18.75 18.75 18.75C18.3358 18.75 18 19.0858 18 19.5C18 19.9142 18.3358 20.25 18.75 20.25Z" stroke="black" stroke-width="1.5" stroke-linecap="round" stroke-linejoin="round"></path>
    <path d="M2.25 3.75H5.25L7.5 16.5H19.5" stroke="black" stroke-width="1.5" stroke-linecap="round" stroke-linejoin="round"></path>
    <path d="M7.5 12.5H19.1925C19.2792 12.5001 19.3633 12.4701 19.4304 12.4151C19.4975 12.3601 19.5434 12.2836 19.5605 12.1986L20.9105 5.44859C20.9214 5.39417 20.92 5.338 20.9066 5.28414C20.8931 5.23029 20.8679 5.18009 20.8327 5.13717C20.7975 5.09426 20.7532 5.05969 20.703 5.03597C20.6528 5.01225 20.598 4.99996 20.5425 5H6" stroke="black" stroke-width="1.5" stroke-linecap="round" stroke-linejoin="round"></path>
  </symbol>
  <symbol fill="none" xmlns="http://www.w3.org/2000/svg" viewBox="0 0 56 56" id="CellPhone">
    <g clip-path="url(#clip0_138_1568)">
      <path d="M38.9375 6.125H17.0625C15.5523 6.125 14.3281 7.34922 14.3281 8.85938V47.1406C14.3281 48.6508 15.5523 49.875 17.0625 49.875H38.9375C40.4477 49.875 41.6719 48.6508 41.6719 47.1406V8.85938C41.6719 7.34922 40.4477 6.125 38.9375 6.125Z" stroke="black" stroke-width="2" stroke-linecap="round" stroke-linejoin="round"></path>
      <path d="M25.6666 7H31.1354" stroke="black" stroke-width="3" stroke-linecap="round" stroke-linejoin="round"></path>
      <path d="M28 44.0052V44.0305" stroke="black" stroke-width="2.5" stroke-linecap="round" stroke-linejoin="round"></path>
      <line x1="15.1666" y1="39.8333" x2="40.8333" y2="39.8333" stroke="black" stroke-width="2"></line>
    </g>
    <defs>
      <clipPath id="clip0_138_1568">
        <rect width="56" height="56" fill="white"></rect>
      </clipPath>
    </defs>
  </symbol>
  <symbol fill="none" xmlns="http://www.w3.org/2000/svg" viewBox="0 0 48 20" id="Colour Chnage">
    <circle cx="10" cy="10" r="6" fill="#A0BCE0"></circle>
    <circle cx="10" cy="10" r="9" stroke="black" stroke-width="2"></circle>
    <circle cx="38" cy="10" r="10" fill="#E07575"></circle>
  </symbol>
  <symbol fill="none" xmlns="http://www.w3.org/2000/svg" viewBox="0 0 24 24" id="Find">
    <path d="M20 20L16.2223 16.2156M18.3158 11.1579C18.3158 13.0563 17.5617 14.8769 16.2193 16.2193C14.8769 17.5617 13.0563 18.3158 11.1579 18.3158C9.2595 18.3158 7.43886 17.5617 6.0965 16.2193C4.75413 14.8769 4 13.0563 4 11.1579C4 9.2595 4.75413 7.43886 6.0965 6.0965C7.43886 4.75413 9.2595 4 11.1579 4C13.0563 4 14.8769 4.75413 16.2193 6.0965C17.5617 7.43886 18.3158 9.2595 18.3158 11.1579V11.1579Z" stroke="black" stroke-width="1.5" stroke-linecap="round"></path>
  </symbol>
  <symbol fill="none" xmlns="http://www.w3.org/2000/svg" viewBox="0 0 56 56" id="Computer">
    <g clip-path="url(#clip0_138_1573)">
      <path d="M46.6667 9.33331H9.33333C8.04467 9.33331 7 10.378 7 11.6666V35C7 36.2886 8.04467 37.3333 9.33333 37.3333H46.6667C47.9553 37.3333 49 36.2886 49 35V11.6666C49 10.378 47.9553 9.33331 46.6667 9.33331Z" stroke="black" stroke-width="2" stroke-linecap="round" stroke-linejoin="round"></path>
      <path d="M16.3333 46.6667H39.6666" stroke="black" stroke-width="2" stroke-linecap="round" stroke-linejoin="round"></path>
      <path d="M21 37.3333V46.6666" stroke="black" stroke-width="2" stroke-linecap="round" stroke-linejoin="round"></path>
      <path d="M35 37.3333V46.6666" stroke="black" stroke-width="2" stroke-linecap="round" stroke-linejoin="round"></path>
      <path d="M8 32H48" stroke="black" stroke-width="2" stroke-linecap="round"></path>
    </g>
    <defs>
      <clipPath id="clip0_138_1573">
        <rect width="56" height="56" fill="white"></rect>
      </clipPath>
    </defs>
  </symbol>
  <symbol fill="none" xmlns="http://www.w3.org/2000/svg" viewBox="0 0 55 26" id="Discount percent">
    <rect width="55" height="26" rx="4" fill="#DB4444"></rect>
    <path d="M17.484 12.14V13.064H12.696V12.14H17.484ZM19.3294 10.508C19.3854 9.772 19.6694 9.196 20.1814 8.78C20.6934 8.364 21.3574 8.156 22.1734 8.156C22.7174 8.156 23.1854 8.256 23.5774 8.456C23.9774 8.648 24.2774 8.912 24.4774 9.248C24.6854 9.584 24.7894 9.964 24.7894 10.388C24.7894 10.884 24.6454 11.312 24.3574 11.672C24.0774 12.032 23.7094 12.264 23.2534 12.368V12.428C23.7734 12.556 24.1854 12.808 24.4894 13.184C24.7934 13.56 24.9454 14.052 24.9454 14.66C24.9454 15.116 24.8414 15.528 24.6334 15.896C24.4254 16.256 24.1134 16.54 23.6974 16.748C23.2814 16.956 22.7814 17.06 22.1974 17.06C21.3494 17.06 20.6534 16.84 20.1094 16.4C19.5654 15.952 19.2614 15.32 19.1974 14.504H20.2534C20.3094 14.984 20.5054 15.376 20.8414 15.68C21.1774 15.984 21.6254 16.136 22.1854 16.136C22.7454 16.136 23.1694 15.992 23.4574 15.704C23.7534 15.408 23.9014 15.028 23.9014 14.564C23.9014 13.964 23.7014 13.532 23.3014 13.268C22.9014 13.004 22.2974 12.872 21.4894 12.872H21.2134V11.96H21.5014C22.2374 11.952 22.7934 11.832 23.1694 11.6C23.5454 11.36 23.7334 10.992 23.7334 10.496C23.7334 10.072 23.5934 9.732 23.3134 9.476C23.0414 9.22 22.6494 9.092 22.1374 9.092C21.6414 9.092 21.2414 9.22 20.9374 9.476C20.6334 9.732 20.4534 10.076 20.3974 10.508H19.3294ZM31.9518 9.272H27.7398V12.008C27.9238 11.752 28.1958 11.544 28.5558 11.384C28.9158 11.216 29.3038 11.132 29.7198 11.132C30.3838 11.132 30.9238 11.272 31.3398 11.552C31.7558 11.824 32.0518 12.18 32.2278 12.62C32.4118 13.052 32.5038 13.512 32.5038 14C32.5038 14.576 32.3958 15.092 32.1798 15.548C31.9638 16.004 31.6318 16.364 31.1838 16.628C30.7438 16.892 30.1958 17.024 29.5398 17.024C28.6998 17.024 28.0198 16.808 27.4998 16.376C26.9798 15.944 26.6638 15.368 26.5518 14.648H27.6198C27.7238 15.104 27.9438 15.46 28.2798 15.716C28.6158 15.972 29.0398 16.1 29.5518 16.1C30.1838 16.1 30.6598 15.912 30.9798 15.536C31.2998 15.152 31.4598 14.648 31.4598 14.024C31.4598 13.4 31.2998 12.92 30.9798 12.584C30.6598 12.24 30.1878 12.068 29.5638 12.068C29.1398 12.068 28.7678 12.172 28.4478 12.38C28.1358 12.58 27.9078 12.856 27.7638 13.208H26.7318V8.312H31.9518V9.272ZM33.7149 10.28C33.7149 9.736 33.8789 9.304 34.2069 8.984C34.5349 8.656 34.9549 8.492 35.4669 8.492C35.9789 8.492 36.3989 8.656 36.7269 8.984C37.0549 9.304 37.2189 9.736 37.2189 10.28C37.2189 10.832 37.0549 11.272 36.7269 11.6C36.3989 11.92 35.9789 12.08 35.4669 12.08C34.9549 12.08 34.5349 11.92 34.2069 11.6C33.8789 11.272 33.7149 10.832 33.7149 10.28ZM40.7229 8.624L35.8629 17H34.7829L39.6429 8.624H40.7229ZM35.4669 9.164C35.1949 9.164 34.9789 9.26 34.8189 9.452C34.6669 9.636 34.5909 9.912 34.5909 10.28C34.5909 10.648 34.6669 10.928 34.8189 11.12C34.9789 11.312 35.1949 11.408 35.4669 11.408C35.7389 11.408 35.9549 11.312 36.1149 11.12C36.2749 10.92 36.3549 10.64 36.3549 10.28C36.3549 9.912 36.2749 9.636 36.1149 9.452C35.9549 9.26 35.7389 9.164 35.4669 9.164ZM38.3109 15.344C38.3109 14.792 38.4749 14.356 38.8029 14.036C39.1309 13.708 39.5509 13.544 40.0629 13.544C40.5749 13.544 40.9909 13.708 41.3109 14.036C41.6389 14.356 41.8029 14.792 41.8029 15.344C41.8029 15.888 41.6389 16.324 41.3109 16.652C40.9909 16.98 40.5749 17.144 40.0629 17.144C39.5509 17.144 39.1309 16.984 38.8029 16.664C38.4749 16.336 38.3109 15.896 38.3109 15.344ZM40.0509 14.228C39.7789 14.228 39.5629 14.324 39.4029 14.516C39.2429 14.7 39.1629 14.976 39.1629 15.344C39.1629 15.704 39.2429 15.98 39.4029 16.172C39.5629 16.356 39.7789 16.448 40.0509 16.448C40.3229 16.448 40.5389 16.356 40.6989 16.172C40.8589 15.98 40.9389 15.704 40.9389 15.344C40.9389 14.976 40.8589 14.7 40.6989 14.516C40.5389 14.324 40.3229 14.228 40.0509 14.228Z" fill="#FAFAFA"></path>
  </symbol>
  <symbol fill="none" xmlns="http://www.w3.org/2000/svg" viewBox="0 0 24 24" id="DropDown">
    <path d="M12.364 12.95L17.314 8L18.728 9.414L12.364 15.778L6.00003 9.414L7.41403 8L12.364 12.95Z" fill="white"></path>
  </symbol>
  <symbol fill="none" xmlns="http://www.w3.org/2000/svg" viewBox="0 0 16 16" id="Drop-Down-Small">
    <path d="M8.24268 8.63331L11.5427 5.33331L12.4854 6.27598L8.24268 10.5186L4.00002 6.27598L4.94268 5.33331L8.24268 8.63331Z" fill="black"></path>
  </symbol>
  <symbol fill="none" xmlns="http://www.w3.org/2000/svg" viewBox="0 0 16 16" id="Drop-Up-Small">
    <path d="M7.75732 7.36669L4.45732 10.6667L3.51465 9.72402L7.75732 5.48135L12 9.72402L11.0573 10.6667L7.75732 7.36669Z" fill="black"></path>
  </symbol>
  <symbol fill="none" xmlns="http://www.w3.org/2000/svg" viewBox="0 0 20 20" id="Ellipse 8">
    <circle cx="10" cy="10" r="10" fill="#E07575"></circle>
  </symbol>
  <symbol fill="none" xmlns="http://www.w3.org/2000/svg" viewBox="0 0 34 34" id="Fill Eye">
    <circle cx="17" cy="17" r="17" fill="white"></circle>
    <path d="M26.257 15.962C26.731 16.582 26.731 17.419 26.257 18.038C24.764 19.987 21.182 24 17 24C12.818 24 9.23601 19.987 7.74301 18.038C7.51239 17.7411 7.38721 17.3759 7.38721 17C7.38721 16.6241 7.51239 16.2589 7.74301 15.962C9.23601 14.013 12.818 10 17 10C21.182 10 24.764 14.013 26.257 15.962V15.962Z" stroke="black" stroke-width="1.5" stroke-linecap="round" stroke-linejoin="round"></path>
    <path d="M17 20C18.6569 20 20 18.6569 20 17C20 15.3431 18.6569 14 17 14C15.3431 14 14 15.3431 14 17C14 18.6569 15.3431 20 17 20Z" stroke="black" stroke-width="1.5" stroke-linecap="round" stroke-linejoin="round"></path>
  </symbol>
  <symbol fill="none" xmlns="http://www.w3.org/2000/svg" viewBox="0 0 34 34" id="Fill Heart">
    <circle cx="17" cy="17" r="17" fill="white"></circle>
    <path d="M13 10C10.7912 10 9 11.7396 9 13.8859C9 15.6185 9.7 19.7305 16.5904 23.8873C16.7138 23.961 16.8555 24 17 24C17.1445 24 17.2862 23.961 17.4096 23.8873C24.3 19.7305 25 15.6185 25 13.8859C25 11.7396 23.2088 10 21 10C18.7912 10 17 12.3551 17 12.3551C17 12.3551 15.2088 10 13 10Z" stroke="black" stroke-width="1.5" stroke-linecap="round" stroke-linejoin="round"></path>
  </symbol>
  <symbol fill="none" xmlns="http://www.w3.org/2000/svg" viewBox="0 0 46 46" id="Fill With Left Arrow">
    <circle cx="23" cy="23" r="23" fill="#F5F5F5"></circle>
    <path d="M22 16L15 23L22 30M15 23H31" stroke="black" stroke-width="2" stroke-linecap="round" stroke-linejoin="round"></path>
  </symbol>
  <symbol fill="none" xmlns="http://www.w3.org/2000/svg" viewBox="0 0 46 46" id="Fill with Right Arrow">
    <circle cx="23" cy="23" r="23" fill="#F5F5F5"></circle>
    <path d="M14.5 23H31M31 23L24 16M31 23L24 30" stroke="black" stroke-width="1.5" stroke-linecap="round" stroke-linejoin="round"></path>
  </symbol>
  <symbol fill="none" xmlns="http://www.w3.org/2000/svg" viewBox="0 0 46 46" id="Fill with Up Arrow">
    <circle cx="23" cy="23" r="23" transform="rotate(-90 23 23)" fill="#F5F5F5"></circle>
    <path d="M23 31V15M16 22L23 15L30 22" stroke="black" stroke-width="2" stroke-linecap="round" stroke-linejoin="round"></path>
  </symbol>
  <symbol fill="none" xmlns="http://www.w3.org/2000/svg" viewBox="0 0 38 38" id="Fire Fill (1)">
    <circle cx="19" cy="19" r="19" fill="#00FF66"></circle>
    <path d="M19 29C14.03 29 10 26.418 10 22V21.912C10 19.794 11.338 18.1 13.375 17C15.324 15.948 16.476 14.01 16.188 12L15.625 9L17.711 9.795C21.468 11.225 24.597 13.707 26.625 16.861C27.5167 18.2311 27.9941 19.8293 28 21.464V22C28 23.562 27.496 24.895 26.625 25.965" stroke="white" stroke-width="1.5" stroke-linecap="round" stroke-linejoin="round"></path>
    <path d="M19 29C17.343 29 16 27.567 16 25.8C16 24.4 17.016 23.279 17.91 22.252L19 21L20.09 22.252C20.984 23.28 22 24.4 22 25.8C22 27.567 20.657 29 19 29Z" stroke="white" stroke-width="1.5" stroke-linecap="round" stroke-linejoin="round"></path>
  </symbol>
  <symbol fill="none" xmlns="http://www.w3.org/2000/svg" viewBox="0 0 38 38" id="Fire Fill (2)">
    <circle cx="19" cy="19" r="19" fill="#DB4444"></circle>
    <path d="M19 29C14.03 29 10 26.418 10 22V21.912C10 19.794 11.338 18.1 13.375 17C15.324 15.948 16.476 14.01 16.188 12L15.625 9L17.711 9.795C21.468 11.225 24.597 13.707 26.625 16.861C27.5167 18.2311 27.9941 19.8293 28 21.464V22C28 23.562 27.496 24.895 26.625 25.965" stroke="white" stroke-width="1.5" stroke-linecap="round" stroke-linejoin="round"></path>
    <path d="M19 29C17.343 29 16 27.567 16 25.8C16 24.4 17.016 23.279 17.91 22.252L19 21L20.09 22.252C20.984 23.28 22 24.4 22 25.8C22 27.567 20.657 29 19 29Z" stroke="white" stroke-width="1.5" stroke-linecap="round" stroke-linejoin="round"></path>
  </symbol>
  <symbol fill="none" xmlns="http://www.w3.org/2000/svg" viewBox="0 0 38 38" id="Fire Fill (3)">
    <circle cx="19" cy="19" r="19" fill="#DB4444"></circle>
    <path d="M27.485 10H23.493L23.993 15C23.993 15 24.993 16 26.493 16C27.2805 16.001 28.0411 15.7144 28.632 15.194C28.6945 15.1356 28.741 15.0623 28.7673 14.9809C28.7935 14.8996 28.7986 14.8129 28.782 14.729L28.076 10.5C28.0524 10.3603 27.9801 10.2335 27.872 10.1419C27.7638 10.0504 27.6267 10.0001 27.485 10V10Z" stroke="white" stroke-width="1.5"></path>
    <path d="M23.493 10L23.993 15C23.993 15 22.993 16 21.493 16C19.993 16 18.993 15 18.993 15V10H23.493Z" stroke="white" stroke-width="1.5"></path>
    <path d="M18.993 10V15C18.993 15 17.993 16 16.493 16C14.993 16 13.993 15 13.993 15L14.493 10H18.993Z" stroke="white" stroke-width="1.5"></path>
    <path d="M14.493 10H10.502C10.36 9.99995 10.2226 10.0503 10.1142 10.142C10.0058 10.2337 9.93344 10.3609 9.91001 10.501L9.20501 14.73C9.18853 14.8139 9.19366 14.9005 9.2199 14.9819C9.24614 15.0632 9.29263 15.1366 9.35501 15.195C9.68301 15.485 10.416 16.001 11.493 16.001C12.993 16.001 13.993 15.001 13.993 15.001L14.493 10.001V10Z" stroke="white" stroke-width="1.5"></path>
    <path d="M10 16V26C10 26.5304 10.2107 27.0391 10.5858 27.4142C10.9609 27.7893 11.4696 28 12 28H26C26.5304 28 27.0391 27.7893 27.4142 27.4142C27.7893 27.0391 28 26.5304 28 26V16" stroke="white" stroke-width="1.5"></path>
    <path d="M21.833 28V22C21.833 21.4696 21.6223 20.9609 21.2472 20.5858C20.8721 20.2107 20.3634 20 19.833 20H17.833C17.3026 20 16.7939 20.2107 16.4188 20.5858C16.0437 20.9609 15.833 21.4696 15.833 22V28" stroke="white" stroke-width="1.5" stroke-miterlimit="16"></path>
  </symbol>
  <symbol fill="none" xmlns="http://www.w3.org/2000/svg" viewBox="0 0 38 38" id="Fire Fill (4)">
    <circle cx="19" cy="19" r="19" fill="#00FF66"></circle>
    <path d="M13 27V17C13 15.4087 13.6321 13.8826 14.7574 12.7574C15.8826 11.6321 17.4087 11 19 11C20.5913 11 22.1174 11.6321 23.2426 12.7574C24.3679 13.8826 25 15.4087 25 17V27M9 20.565C9 18.512 11 18 13 18V27C11.9391 27 10.9217 26.5786 10.1716 25.8284C9.42143 25.0783 9 24.0609 9 23V20.565ZM29 20.565C29 18.512 27 18 25 18V27C26.0609 27 27.0783 26.5786 27.8284 25.8284C28.5786 25.0783 29 24.0609 29 23V20.565Z" stroke="#FAFAFA" stroke-width="1.5" stroke-linecap="round" stroke-linejoin="round"></path>
  </symbol>
  <symbol fill="none" xmlns="http://www.w3.org/2000/svg" viewBox="0 0 38 38" id="Fire Fill">
    <circle cx="19" cy="19" r="19" fill="#DB4444"></circle>
    <path d="M19 29C14.03 29 10 26.418 10 22V21.912C10 19.794 11.338 18.1 13.375 17C15.324 15.948 16.476 14.01 16.188 12L15.625 9L17.711 9.795C21.468 11.225 24.597 13.707 26.625 16.861C27.5167 18.2311 27.9941 19.8293 28 21.464V22C28 23.562 27.496 24.895 26.625 25.965" stroke="white" stroke-width="1.5" stroke-linecap="round" stroke-linejoin="round"></path>
    <path d="M19 29C17.343 29 16 27.567 16 25.8C16 24.4 17.016 23.279 17.91 22.252L19 21L20.09 22.252C20.984 23.28 22 24.4 22 25.8C22 27.567 20.657 29 19 29Z" stroke="white" stroke-width="1.5" stroke-linecap="round" stroke-linejoin="round"></path>
  </symbol>
  <symbol fill="none" xmlns="http://www.w3.org/2000/svg" viewBox="0 0 38 38" id="Fire Fill=Headset">
    <circle cx="19" cy="19" r="19" fill="#DB4444"></circle>
    <path d="M13 27V17C13 15.4087 13.6321 13.8826 14.7574 12.7574C15.8826 11.6321 17.4087 11 19 11C20.5913 11 22.1174 11.6321 23.2426 12.7574C24.3679 13.8826 25 15.4087 25 17V27M9 20.565C9 18.512 11 18 13 18V27C11.9391 27 10.9217 26.5786 10.1716 25.8284C9.42143 25.0783 9 24.0609 9 23V20.565ZM29 20.565C29 18.512 27 18 25 18V27C26.0609 27 27.0783 26.5786 27.8284 25.8284C28.5786 25.0783 29 24.0609 29 23V20.565Z" stroke="#FAFAFA" stroke-width="1.5" stroke-linecap="round" stroke-linejoin="round"></path>
  </symbol>
  <symbol fill="none" xmlns="http://www.w3.org/2000/svg" viewBox="0 0 38 38" id="Fire Fill=Shop">
    <circle cx="19" cy="19" r="19" fill="#DB4444"></circle>
    <path d="M27.485 10H23.493L23.993 15C23.993 15 24.993 16 26.493 16C27.2805 16.001 28.0411 15.7144 28.632 15.194C28.6945 15.1356 28.741 15.0623 28.7673 14.9809C28.7935 14.8996 28.7986 14.8129 28.782 14.729L28.076 10.5C28.0524 10.3603 27.9801 10.2335 27.872 10.1419C27.7638 10.0504 27.6267 10.0001 27.485 10V10Z" stroke="white" stroke-width="1.5"></path>
    <path d="M23.493 10L23.993 15C23.993 15 22.993 16 21.493 16C19.993 16 18.993 15 18.993 15V10H23.493Z" stroke="white" stroke-width="1.5"></path>
    <path d="M18.993 10V15C18.993 15 17.993 16 16.493 16C14.993 16 13.993 15 13.993 15L14.493 10H18.993Z" stroke="white" stroke-width="1.5"></path>
    <path d="M14.493 10H10.502C10.36 9.99995 10.2226 10.0503 10.1142 10.142C10.0058 10.2337 9.93344 10.3609 9.91001 10.501L9.20501 14.73C9.18853 14.8139 9.19366 14.9005 9.2199 14.9819C9.24614 15.0632 9.29263 15.1366 9.35501 15.195C9.68301 15.485 10.416 16.001 11.493 16.001C12.993 16.001 13.993 15.001 13.993 15.001L14.493 10.001V10Z" stroke="white" stroke-width="1.5"></path>
    <path d="M10 16V26C10 26.5304 10.2107 27.0391 10.5858 27.4142C10.9609 27.7893 11.4696 28 12 28H26C26.5304 28 27.0391 27.7893 27.4142 27.4142C27.7893 27.0391 28 26.5304 28 26V16" stroke="white" stroke-width="1.5"></path>
    <path d="M21.833 28V22C21.833 21.4696 21.6223 20.9609 21.2472 20.5858C20.8721 20.2107 20.3634 20 19.833 20H17.833C17.3026 20 16.7939 20.2107 16.4188 20.5858C16.0437 20.9609 15.833 21.4696 15.833 22V28" stroke="white" stroke-width="1.5" stroke-miterlimit="16"></path>
  </symbol>
  <symbol fill="none" xmlns="http://www.w3.org/2000/svg" viewBox="0 0 100 20" id="Five star">
    <path d="M16.673 10.1717C17.7437 9.36184 17.1709 7.65517 15.8284 7.65517H13.3992C12.7853 7.65517 12.243 7.25521 12.0617 6.66868L11.3375 4.32637C10.9309 3.01106 9.0691 3.01106 8.66246 4.32637L7.93832 6.66868C7.75699 7.25521 7.21469 7.65517 6.60078 7.65517H4.12961C2.79142 7.65517 2.21592 9.35274 3.27822 10.1665L5.39469 11.7879C5.85885 12.1435 6.05314 12.7501 5.88196 13.3092L5.11296 15.8207C4.71416 17.1232 6.22167 18.1704 7.30301 17.342L9.14861 15.9281C9.65097 15.5432 10.349 15.5432 10.8514 15.9281L12.6807 17.3295C13.7636 18.159 15.2725 17.1079 14.8696 15.8046L14.09 13.2827C13.9159 12.7198 14.113 12.1081 14.5829 11.7526L16.673 10.1717Z" fill="#FFAD33"></path>
    <path d="M36.673 10.1717C37.7437 9.36184 37.1709 7.65517 35.8284 7.65517H33.3992C32.7853 7.65517 32.243 7.25521 32.0617 6.66868L31.3375 4.32637C30.9309 3.01106 29.0691 3.01106 28.6625 4.32637L27.9383 6.66868C27.757 7.25521 27.2147 7.65517 26.6008 7.65517H24.1296C22.7914 7.65517 22.2159 9.35274 23.2782 10.1665L25.3947 11.7879C25.8588 12.1435 26.0531 12.7501 25.882 13.3092L25.113 15.8207C24.7142 17.1232 26.2217 18.1704 27.303 17.342L29.1486 15.9281C29.651 15.5432 30.349 15.5432 30.8514 15.9281L32.6807 17.3295C33.7636 18.159 35.2725 17.1079 34.8696 15.8046L34.09 13.2827C33.9159 12.7198 34.113 12.1081 34.5829 11.7526L36.673 10.1717Z" fill="#FFAD33"></path>
    <path d="M56.673 10.1717C57.7437 9.36184 57.1709 7.65517 55.8284 7.65517H53.3992C52.7853 7.65517 52.243 7.25521 52.0617 6.66868L51.3375 4.32637C50.9309 3.01106 49.0691 3.01106 48.6625 4.32637L47.9383 6.66868C47.757 7.25521 47.2147 7.65517 46.6008 7.65517H44.1296C42.7914 7.65517 42.2159 9.35274 43.2782 10.1665L45.3947 11.7879C45.8588 12.1435 46.0531 12.7501 45.882 13.3092L45.113 15.8207C44.7142 17.1232 46.2217 18.1704 47.303 17.342L49.1486 15.9281C49.651 15.5432 50.349 15.5432 50.8514 15.9281L52.6807 17.3295C53.7636 18.159 55.2725 17.1079 54.8696 15.8046L54.09 13.2827C53.9159 12.7198 54.113 12.1081 54.5829 11.7526L56.673 10.1717Z" fill="#FFAD33"></path>
    <path d="M76.673 10.1717C77.7437 9.36184 77.1709 7.65517 75.8284 7.65517H73.3992C72.7853 7.65517 72.243 7.25521 72.0617 6.66868L71.3375 4.32637C70.9309 3.01106 69.0691 3.01106 68.6625 4.32637L67.9383 6.66868C67.757 7.25521 67.2147 7.65517 66.6008 7.65517H64.1296C62.7914 7.65517 62.2159 9.35274 63.2782 10.1665L65.3947 11.7879C65.8588 12.1435 66.0531 12.7501 65.882 13.3092L65.113 15.8207C64.7142 17.1232 66.2217 18.1704 67.303 17.342L69.1486 15.9281C69.651 15.5432 70.349 15.5432 70.8514 15.9281L72.6807 17.3295C73.7636 18.159 75.2725 17.1079 74.8696 15.8046L74.09 13.2827C73.9159 12.7198 74.113 12.1081 74.5829 11.7526L76.673 10.1717Z" fill="#FFAD33"></path>
    <path d="M96.673 10.1717C97.7437 9.36184 97.1709 7.65517 95.8284 7.65517H93.3992C92.7853 7.65517 92.243 7.25521 92.0617 6.66868L91.3375 4.32637C90.9309 3.01106 89.0691 3.01106 88.6625 4.32637L87.9383 6.66868C87.757 7.25521 87.2147 7.65517 86.6008 7.65517H84.1296C82.7914 7.65517 82.2159 9.35274 83.2782 10.1665L85.3947 11.7879C85.8588 12.1435 86.0531 12.7501 85.882 13.3092L85.113 15.8207C84.7142 17.1232 86.2217 18.1704 87.303 17.342L89.1486 15.9281C89.651 15.5432 90.349 15.5432 90.8514 15.9281L92.6807 17.3295C93.7636 18.159 95.2725 17.1079 94.8696 15.8046L94.09 13.2827C93.9159 12.7198 94.113 12.1081 94.5829 11.7526L96.673 10.1717Z" fill="#FFAD33"></path>
  </symbol>
  <symbol fill="none" xmlns="http://www.w3.org/2000/svg" viewBox="0 0 100 20" id="Four Half Star">
    <path d="M16.673 10.1717C17.7437 9.36184 17.1709 7.65517 15.8284 7.65517H13.3992C12.7853 7.65517 12.243 7.25521 12.0617 6.66868L11.3375 4.32637C10.9309 3.01106 9.0691 3.01106 8.66246 4.32637L7.93832 6.66868C7.75699 7.25521 7.21469 7.65517 6.60078 7.65517H4.12961C2.79142 7.65517 2.21592 9.35274 3.27822 10.1665L5.39469 11.7879C5.85885 12.1435 6.05314 12.7501 5.88196 13.3092L5.11296 15.8207C4.71416 17.1232 6.22167 18.1704 7.30301 17.342L9.14861 15.9281C9.65097 15.5432 10.349 15.5432 10.8514 15.9281L12.6807 17.3295C13.7636 18.159 15.2725 17.1079 14.8696 15.8046L14.09 13.2827C13.9159 12.7198 14.113 12.1081 14.5829 11.7526L16.673 10.1717Z" fill="#FFAD33"></path>
    <path d="M36.673 10.1717C37.7437 9.36184 37.1709 7.65517 35.8284 7.65517H33.3992C32.7853 7.65517 32.243 7.25521 32.0617 6.66868L31.3375 4.32637C30.9309 3.01106 29.0691 3.01106 28.6625 4.32637L27.9383 6.66868C27.757 7.25521 27.2147 7.65517 26.6008 7.65517H24.1296C22.7914 7.65517 22.2159 9.35274 23.2782 10.1665L25.3947 11.7879C25.8588 12.1435 26.0531 12.7501 25.882 13.3092L25.113 15.8207C24.7142 17.1232 26.2217 18.1704 27.303 17.342L29.1486 15.9281C29.651 15.5432 30.349 15.5432 30.8514 15.9281L32.6807 17.3295C33.7636 18.159 35.2725 17.1079 34.8696 15.8046L34.09 13.2827C33.9159 12.7198 34.113 12.1081 34.5829 11.7526L36.673 10.1717Z" fill="#FFAD33"></path>
    <path d="M56.673 10.1717C57.7437 9.36184 57.1709 7.65517 55.8284 7.65517H53.3992C52.7853 7.65517 52.243 7.25521 52.0617 6.66868L51.3375 4.32637C50.9309 3.01106 49.0691 3.01106 48.6625 4.32637L47.9383 6.66868C47.757 7.25521 47.2147 7.65517 46.6008 7.65517H44.1296C42.7914 7.65517 42.2159 9.35274 43.2782 10.1665L45.3947 11.7879C45.8588 12.1435 46.0531 12.7501 45.882 13.3092L45.113 15.8207C44.7142 17.1232 46.2217 18.1704 47.303 17.342L49.1486 15.9281C49.651 15.5432 50.349 15.5432 50.8514 15.9281L52.6807 17.3295C53.7636 18.159 55.2725 17.1079 54.8696 15.8046L54.09 13.2827C53.9159 12.7198 54.113 12.1081 54.5829 11.7526L56.673 10.1717Z" fill="#FFAD33"></path>
    <path d="M76.673 10.1717C77.7437 9.36184 77.1709 7.65517 75.8284 7.65517H73.3992C72.7853 7.65517 72.243 7.25521 72.0617 6.66868L71.3375 4.32637C70.9309 3.01106 69.0691 3.01106 68.6625 4.32637L67.9383 6.66868C67.757 7.25521 67.2147 7.65517 66.6008 7.65517H64.1296C62.7914 7.65517 62.2159 9.35274 63.2782 10.1665L65.3947 11.7879C65.8588 12.1435 66.0531 12.7501 65.882 13.3092L65.113 15.8207C64.7142 17.1232 66.2217 18.1704 67.303 17.342L69.1486 15.9281C69.651 15.5432 70.349 15.5432 70.8514 15.9281L72.6807 17.3295C73.7636 18.159 75.2725 17.1079 74.8696 15.8046L74.09 13.2827C73.9159 12.7198 74.113 12.1081 74.5829 11.7526L76.673 10.1717Z" fill="#FFAD33"></path>
    <path d="M89.9998 1.83335C89.7507 1.83151 89.5062 1.90038 89.2947 2.03196C89.0832 2.16354 88.9133 2.35242 88.8048 2.57668L86.9532 6.33002L82.8098 6.93168C82.5634 6.96719 82.3318 7.071 82.1413 7.23135C81.9508 7.3917 81.8091 7.60218 81.732 7.83896C81.655 8.07573 81.6458 8.32935 81.7055 8.57107C81.7652 8.8128 81.8914 9.03298 82.0698 9.20668L85.0698 12.1283L84.3615 16.255C84.3194 16.5001 84.3466 16.7522 84.4402 16.9826C84.5338 17.213 84.69 17.4127 84.8911 17.559C85.0922 17.7054 85.3303 17.7925 85.5783 17.8107C85.8264 17.8288 86.0746 17.7772 86.2948 17.6617L89.9998 15.7133V1.83335Z" fill="#FFAD33"></path>
    <path opacity="0.25" d="M90 1.83595C90.2491 1.83404 90.5001 2.00001 90.5001 2.00001C90.5001 2.00001 91.0866 2.20807 91.195 2.44195L93.0467 6.35634L97.1901 6.98383C97.4366 7.02086 97.6682 7.12912 97.8587 7.29635C98.0492 7.46358 98.1909 7.68309 98.268 7.93003C98.345 8.17697 98.3542 8.44147 98.2945 8.69357C98.2347 8.94567 98.1086 9.1753 97.9302 9.35645L94.9301 12.4035L95.6384 16.7072C95.6806 16.9629 95.6533 17.2257 95.5597 17.466C95.4661 17.7064 95.3099 17.9146 95.1088 18.0672C94.9077 18.2198 94.6697 18.3107 94.4216 18.3296C94.1735 18.3486 93.9253 18.2947 93.7051 18.1743L90 16.1423V1.83595Z" fill="black"></path>
  </symbol>
  <symbol fill="none" xmlns="http://www.w3.org/2000/svg" viewBox="0 0 100 20" id="Four Star">
    <path d="M16.673 10.1717C17.7437 9.36184 17.1709 7.65517 15.8284 7.65517H13.3992C12.7853 7.65517 12.243 7.25521 12.0617 6.66868L11.3375 4.32637C10.9309 3.01106 9.0691 3.01106 8.66246 4.32637L7.93832 6.66868C7.75699 7.25521 7.21469 7.65517 6.60078 7.65517H4.12961C2.79142 7.65517 2.21592 9.35274 3.27822 10.1665L5.39469 11.7879C5.85885 12.1435 6.05314 12.7501 5.88196 13.3092L5.11296 15.8207C4.71416 17.1232 6.22167 18.1704 7.30301 17.342L9.14861 15.9281C9.65097 15.5432 10.349 15.5432 10.8514 15.9281L12.6807 17.3295C13.7636 18.159 15.2725 17.1079 14.8696 15.8046L14.09 13.2827C13.9159 12.7198 14.113 12.1081 14.5829 11.7526L16.673 10.1717Z" fill="#FFAD33"></path>
    <path d="M36.673 10.1717C37.7437 9.36184 37.1709 7.65517 35.8284 7.65517H33.3992C32.7853 7.65517 32.243 7.25521 32.0617 6.66868L31.3375 4.32637C30.9309 3.01106 29.0691 3.01106 28.6625 4.32637L27.9383 6.66868C27.757 7.25521 27.2147 7.65517 26.6008 7.65517H24.1296C22.7914 7.65517 22.2159 9.35274 23.2782 10.1665L25.3947 11.7879C25.8588 12.1435 26.0531 12.7501 25.882 13.3092L25.113 15.8207C24.7142 17.1232 26.2217 18.1704 27.303 17.342L29.1486 15.9281C29.651 15.5432 30.349 15.5432 30.8514 15.9281L32.6807 17.3295C33.7636 18.159 35.2725 17.1079 34.8696 15.8046L34.09 13.2827C33.9159 12.7198 34.113 12.1081 34.5829 11.7526L36.673 10.1717Z" fill="#FFAD33"></path>
    <path d="M56.673 10.1717C57.7437 9.36184 57.1709 7.65517 55.8284 7.65517H53.3992C52.7853 7.65517 52.243 7.25521 52.0617 6.66868L51.3375 4.32637C50.9309 3.01106 49.0691 3.01106 48.6625 4.32637L47.9383 6.66868C47.757 7.25521 47.2147 7.65517 46.6008 7.65517H44.1296C42.7914 7.65517 42.2159 9.35274 43.2782 10.1665L45.3947 11.7879C45.8588 12.1435 46.0531 12.7501 45.882 13.3092L45.113 15.8207C44.7142 17.1232 46.2217 18.1704 47.303 17.342L49.1486 15.9281C49.651 15.5432 50.349 15.5432 50.8514 15.9281L52.6807 17.3295C53.7636 18.159 55.2725 17.1079 54.8696 15.8046L54.09 13.2827C53.9159 12.7198 54.113 12.1081 54.5829 11.7526L56.673 10.1717Z" fill="#FFAD33"></path>
    <path d="M76.673 10.1717C77.7437 9.36184 77.1709 7.65517 75.8284 7.65517H73.3992C72.7853 7.65517 72.243 7.25521 72.0617 6.66868L71.3375 4.32637C70.9309 3.01106 69.0691 3.01106 68.6625 4.32637L67.9383 6.66868C67.757 7.25521 67.2147 7.65517 66.6008 7.65517H64.1296C62.7914 7.65517 62.2159 9.35274 63.2782 10.1665L65.3947 11.7879C65.8588 12.1435 66.0531 12.7501 65.882 13.3092L65.113 15.8207C64.7142 17.1232 66.2217 18.1704 67.303 17.342L69.1486 15.9281C69.651 15.5432 70.349 15.5432 70.8514 15.9281L72.6807 17.3295C73.7636 18.159 75.2725 17.1079 74.8696 15.8046L74.09 13.2827C73.9159 12.7198 74.113 12.1081 74.5829 11.7526L76.673 10.1717Z" fill="#FFAD33"></path>
    <path opacity="0.25" d="M96.673 10.1717C97.7437 9.36184 97.1709 7.65517 95.8284 7.65517H93.3992C92.7853 7.65517 92.243 7.25521 92.0617 6.66868L91.3375 4.32637C90.9309 3.01106 89.0691 3.01106 88.6625 4.32637L87.9383 6.66868C87.757 7.25521 87.2147 7.65517 86.6008 7.65517H84.1296C82.7914 7.65517 82.2159 9.35274 83.2782 10.1665L85.3947 11.7879C85.8588 12.1435 86.0531 12.7501 85.882 13.3092L85.113 15.8207C84.7142 17.1232 86.2217 18.1704 87.303 17.342L89.1486 15.9281C89.651 15.5432 90.349 15.5432 90.8514 15.9281L92.6807 17.3295C93.7636 18.159 95.2725 17.1079 94.8696 15.8046L94.09 13.2827C93.9159 12.7198 94.113 12.1081 94.5829 11.7526L96.673 10.1717Z" fill="black"></path>
  </symbol>
  <symbol fill="none" xmlns="http://www.w3.org/2000/svg" viewBox="0 0 56 56" id="Gamepad">
    <g clip-path="url(#clip0_138_1571)">
      <path d="M46.6666 14H9.33329C6.75596 14 4.66663 16.0893 4.66663 18.6667V37.3333C4.66663 39.9107 6.75596 42 9.33329 42H46.6666C49.244 42 51.3333 39.9107 51.3333 37.3333V18.6667C51.3333 16.0893 49.244 14 46.6666 14Z" stroke="black" stroke-width="2" stroke-linecap="round" stroke-linejoin="round"></path>
      <path d="M14 28H23.3333M18.6667 23.3333V32.6666" stroke="black" stroke-width="2" stroke-linecap="round" stroke-linejoin="round"></path>
      <path d="M35 25.6667V25.6909" stroke="black" stroke-width="3" stroke-linecap="round" stroke-linejoin="round"></path>
      <path d="M42 30.3333V30.3574" stroke="black" stroke-width="3" stroke-linecap="round" stroke-linejoin="round"></path>
    </g>
    <defs>
      <clipPath id="clip0_138_1571">
        <rect width="56" height="56" fill="white"></rect>
      </clipPath>
    </defs>
  </symbol>
  <symbol fill="none" xmlns="http://www.w3.org/2000/svg" viewBox="0 0 34 34" id="Group 1000005932">
    <circle cx="17" cy="17" r="16" fill="white" stroke="#FEFAF1" stroke-width="2"></circle>
    <path d="M16.05 17.364L21 22.314L19.586 23.728L13.222 17.364L19.586 11L21 12.414L16.05 17.364Z" fill="black"></path>
  </symbol>
  <symbol fill="none" xmlns="http://www.w3.org/2000/svg" viewBox="0 0 20 20" id="Group 1000005935">
    <circle cx="10" cy="10" r="6" fill="#A0BCE0"></circle>
    <circle cx="10" cy="10" r="9" stroke="black" stroke-width="2"></circle>
  </symbol>
  <symbol fill="none" xmlns="http://www.w3.org/2000/svg" viewBox="0 0 56 56" id="Headphone">
    <g clip-path="url(#clip0_138_1572)">
      <path d="M16.3334 30.3333H14C11.4227 30.3333 9.33337 32.4227 9.33337 35V42C9.33337 44.5773 11.4227 46.6666 14 46.6666H16.3334C18.9107 46.6666 21 44.5773 21 42V35C21 32.4227 18.9107 30.3333 16.3334 30.3333Z" stroke="black" stroke-width="2" stroke-linecap="round" stroke-linejoin="round"></path>
      <path d="M42 30.3333H39.6667C37.0893 30.3333 35 32.4227 35 35V42C35 44.5773 37.0893 46.6666 39.6667 46.6666H42C44.5773 46.6666 46.6667 44.5773 46.6667 42V35C46.6667 32.4227 44.5773 30.3333 42 30.3333Z" stroke="black" stroke-width="2" stroke-linecap="round" stroke-linejoin="round"></path>
      <path d="M9.33337 35V28C9.33337 23.0493 11.3 18.3013 14.8007 14.8007C18.3014 11.3 23.0493 9.33331 28 9.33331C32.9507 9.33331 37.6987 11.3 41.1994 14.8007C44.7 18.3013 46.6667 23.0493 46.6667 28V35" stroke="black" stroke-width="2" stroke-linecap="round" stroke-linejoin="round"></path>
    </g>
    <defs>
      <clipPath id="clip0_138_1572">
        <rect width="56" height="56" fill="white"></rect>
      </clipPath>
    </defs>
  </symbol>
  <symbol fill="none" xmlns="http://www.w3.org/2000/svg" viewBox="0 0 24 24" id="heart small">
    <path d="M8 5C5.7912 5 4 6.73964 4 8.88594C4 10.6185 4.7 14.7305 11.5904 18.8873C11.7138 18.961 11.8555 19 12 19C12.1445 19 12.2862 18.961 12.4096 18.8873C19.3 14.7305 20 10.6185 20 8.88594C20 6.73964 18.2088 5 16 5C13.7912 5 12 7.35511 12 7.35511C12 7.35511 10.2088 5 8 5Z" stroke="black" stroke-width="1.5" stroke-linecap="round" stroke-linejoin="round"></path>
  </symbol>
  <symbol fill="none" xmlns="http://www.w3.org/2000/svg" viewBox="0 0 24 24" id="icon_shop">
    <path d="M20.485 3H16.493L16.993 8C16.993 8 17.993 9 19.493 9C20.2804 9.00104 21.0411 8.71441 21.632 8.194C21.6945 8.13563 21.741 8.0623 21.7673 7.98094C21.7935 7.89958 21.7986 7.81287 21.782 7.729L21.076 3.5C21.0524 3.36029 20.9801 3.23345 20.8719 3.14194C20.7638 3.05042 20.6267 3.00014 20.485 3V3Z" stroke="black" stroke-width="1.5"></path>
    <path d="M16.493 3L16.993 8C16.993 8 15.993 9 14.493 9C12.993 9 11.993 8 11.993 8V3H16.493Z" stroke="black" stroke-width="1.5"></path>
    <path d="M11.993 3V8C11.993 8 10.993 9 9.49301 9C7.99301 9 6.99301 8 6.99301 8L7.49301 3H11.993Z" stroke="black" stroke-width="1.5"></path>
    <path d="M7.49301 3H3.50201C3.36001 2.99995 3.22258 3.05026 3.11419 3.142C3.00579 3.23373 2.93344 3.36094 2.91001 3.501L2.20501 7.73C2.18853 7.81387 2.19366 7.90055 2.2199 7.98189C2.24614 8.06324 2.29263 8.13657 2.35501 8.195C2.68301 8.485 3.41601 9.001 4.49301 9.001C5.99301 9.001 6.99301 8.001 6.99301 8.001L7.49301 3.001V3Z" stroke="black" stroke-width="1.5"></path>
    <path d="M3 9V19C3 19.5304 3.21071 20.0391 3.58579 20.4142C3.96086 20.7893 4.46957 21 5 21H19C19.5304 21 20.0391 20.7893 20.4142 20.4142C20.7893 20.0391 21 19.5304 21 19V9" stroke="black" stroke-width="1.5"></path>
    <path d="M14.833 21V15C14.833 14.4696 14.6223 13.9609 14.2472 13.5858C13.8721 13.2107 13.3634 13 12.833 13H10.833C10.3026 13 9.79387 13.2107 9.41879 13.5858C9.04372 13.9609 8.83301 14.4696 8.83301 15V21" stroke="black" stroke-width="1.5" stroke-miterlimit="16"></path>
  </symbol>
  <symbol fill="none" xmlns="http://www.w3.org/2000/svg" viewBox="0 0 24 24" id="icon-cancel">
    <g clip-path="url(#clip0_158_3778)">
      <path d="M8 16L12 12M16 8L11.9992 12M11.9992 12L8 8M12 12L16 16" stroke="black" stroke-width="1.5" stroke-linecap="round" stroke-linejoin="round"></path>
      <circle cx="12" cy="12" r="11.25" stroke="black" stroke-width="1.5"></circle>
    </g>
    <defs>
      <clipPath id="clip0_158_3778">
        <rect width="24" height="24" fill="white"></rect>
      </clipPath>
    </defs>
  </symbol>
  <symbol fill="none" xmlns="http://www.w3.org/2000/svg" viewBox="0 0 20 20" id="icon-copyright">
    <g clip-path="url(#clip0_128_1590)">
      <path d="M9.99999 18.3334C14.6024 18.3334 18.3333 14.6024 18.3333 10C18.3333 5.39765 14.6024 1.66669 9.99999 1.66669C5.39762 1.66669 1.66666 5.39765 1.66666 10C1.66666 14.6024 5.39762 18.3334 9.99999 18.3334Z" stroke="rgba(255, 255, 255, 1)" stroke-width="1.5" stroke-linecap="round" stroke-linejoin="round"></path>
      <path d="M12.5 8.14817C12.5 8.14817 11.4706 6.66669 9.75489 6.66669C8.03921 6.66669 6.66666 8.14817 6.66666 10C6.66666 11.8519 8.03921 13.3334 9.75489 13.3334C11.4706 13.3334 12.5 11.8519 12.5 11.8519" stroke="rgba(255, 255, 255, 1)" stroke-width="1.5" stroke-linecap="round" stroke-linejoin="round"></path>
    </g>
    <defs>
      <clipPath id="clip0_128_1590">
        <rect width="20" height="20" fill="white"></rect>
      </clipPath>
    </defs>
  </symbol>
  <symbol fill="none" xmlns="http://www.w3.org/2000/svg" viewBox="0 0 40 40" id="Icon-Customer service">
    <g clip-path="url(#clip0_138_1545)">
      <path d="M13.3333 25C13.3333 23.1591 11.8409 21.6667 9.99999 21.6667C8.15904 21.6667 6.66666 23.1591 6.66666 25V28.3334C6.66666 30.1743 8.15904 31.6667 9.99999 31.6667C11.8409 31.6667 13.3333 30.1743 13.3333 28.3334V25Z" stroke="black" stroke-width="2" stroke-linecap="round" stroke-linejoin="round"></path>
      <path d="M33.3333 25C33.3333 23.1591 31.8409 21.6667 30 21.6667C28.159 21.6667 26.6667 23.1591 26.6667 25V28.3334C26.6667 30.1743 28.159 31.6667 30 31.6667C31.8409 31.6667 33.3333 30.1743 33.3333 28.3334V25Z" stroke="black" stroke-width="2" stroke-linecap="round" stroke-linejoin="round"></path>
      <path d="M6.66666 25V20C6.66666 16.4638 8.07141 13.0724 10.5719 10.5719C13.0724 8.07145 16.4638 6.66669 20 6.66669C23.5362 6.66669 26.9276 8.07145 29.4281 10.5719C31.9286 13.0724 33.3333 16.4638 33.3333 20V25" stroke="black" stroke-width="2" stroke-linecap="round" stroke-linejoin="round"></path>
      <path d="M30 31.6667C30 32.9928 28.9464 34.2645 27.0711 35.2022C25.1957 36.1399 22.6522 36.6667 20 36.6667" stroke="black" stroke-width="2" stroke-linecap="round" stroke-linejoin="round"></path>
    </g>
    <defs>
      <clipPath id="clip0_138_1545">
        <rect width="40" height="40" fill="white"></rect>
      </clipPath>
    </defs>
  </symbol>
  <symbol fill="none" xmlns="http://www.w3.org/2000/svg" viewBox="0 0 24 24" id="icon-delete">
    <path d="M20 5.57143H5.33333L6.66667 21H17.3333L18.6667 5.57143H4M12 9.42857V17.1429M15.3333 9.42857L14.6667 17.1429M8.66667 9.42857L9.33333 17.1429M9.33333 5.57143L10 3H14L14.6667 5.57143" stroke="black" stroke-width="1.56" stroke-linecap="round" stroke-linejoin="round"></path>
  </symbol>
  <symbol fill="none" xmlns="http://www.w3.org/2000/svg" viewBox="0 0 40 40" id="icon-delivery">
    <g clip-path="url(#clip0_120_1374)">
      <path d="M11.6667 31.6667C13.5076 31.6667 15 30.1743 15 28.3333C15 26.4924 13.5076 25 11.6667 25C9.82573 25 8.33334 26.4924 8.33334 28.3333C8.33334 30.1743 9.82573 31.6667 11.6667 31.6667Z" stroke="black" stroke-width="2" stroke-linecap="round" stroke-linejoin="round"></path>
      <path d="M28.3333 31.6667C30.1743 31.6667 31.6667 30.1743 31.6667 28.3333C31.6667 26.4924 30.1743 25 28.3333 25C26.4924 25 25 26.4924 25 28.3333C25 30.1743 26.4924 31.6667 28.3333 31.6667Z" stroke="black" stroke-width="2" stroke-linecap="round" stroke-linejoin="round"></path>
      <path d="M8.33331 28.3335H6.99998C5.89541 28.3335 4.99998 27.4381 4.99998 26.3335V21.6668M3.33331 8.3335H19.6666C20.7712 8.3335 21.6666 9.22893 21.6666 10.3335V28.3335M15 28.3335H25M31.6667 28.3335H33C34.1046 28.3335 35 27.4381 35 26.3335V18.3335M35 18.3335H21.6666M35 18.3335L30.5826 10.9712C30.2211 10.3688 29.5701 10.0002 28.8676 10.0002H21.6666" stroke="black" stroke-width="2" stroke-linecap="round" stroke-linejoin="round"></path>
      <path d="M8 28H6.66667C5.5621 28 4.66667 27.1046 4.66667 26V21.3333M3 8H19.3333C20.4379 8 21.3333 8.89543 21.3333 10V28M15 28H24.6667M32 28H32.6667C33.7712 28 34.6667 27.1046 34.6667 26V18M34.6667 18H21.3333M34.6667 18L30.2493 10.6377C29.8878 10.0353 29.2368 9.66667 28.5343 9.66667H21.3333" stroke="black" stroke-width="2" stroke-linecap="round" stroke-linejoin="round"></path>
      <path d="M5 11.8182H11.6667" stroke="black" stroke-width="2" stroke-linecap="round" stroke-linejoin="round"></path>
      <path d="M1.81818 15.4545H8.48484" stroke="black" stroke-width="2" stroke-linecap="round" stroke-linejoin="round"></path>
      <path d="M5 19.0909H11.6667" stroke="black" stroke-width="2" stroke-linecap="round" stroke-linejoin="round"></path>
    </g>
    <defs>
      <clipPath id="clip0_120_1374">
        <rect width="40" height="40" fill="white"></rect>
      </clipPath>
    </defs>
  </symbol>
  <symbol fill="none" xmlns="http://www.w3.org/2000/svg" viewBox="0 0 24 24" id="Icon-Facebook">
    <path d="M13 10H17.5L17 12H13V21H11V12H7V10H11V8.128C11 6.345 11.186 5.698 11.534 5.046C11.875 4.40181 12.4018 3.87501 13.046 3.534C13.698 3.186 14.345 3 16.128 3C16.65 3 17.108 3.05 17.5 3.15V5H16.128C14.804 5 14.401 5.078 13.99 5.298C13.686 5.46 13.46 5.686 13.298 5.99C13.078 6.401 13 6.804 13 8.128V10Z" fill="white"></path>
  </symbol>
  <symbol fill="none" xmlns="http://www.w3.org/2000/svg" viewBox="0 0 24 24" id="Icon-Google">
    <g clip-path="url(#clip0_155_1565)">
      <path d="M23.766 12.2764C23.766 11.4607 23.6999 10.6406 23.5588 9.83807H12.24V14.4591H18.7217C18.4528 15.9494 17.5885 17.2678 16.323 18.1056V21.1039H20.19C22.4608 19.0139 23.766 15.9274 23.766 12.2764Z" fill="#4285F4"></path>
      <path d="M12.24 24.0008C15.4764 24.0008 18.2058 22.9382 20.1944 21.1039L16.3274 18.1055C15.2516 18.8375 13.8626 19.252 12.2444 19.252C9.11376 19.252 6.45934 17.1399 5.50693 14.3003H1.51648V17.3912C3.55359 21.4434 7.70278 24.0008 12.24 24.0008Z" fill="#34A853"></path>
      <path d="M5.50253 14.3003C4.99987 12.8099 4.99987 11.1961 5.50253 9.70575V6.61481H1.51649C-0.18551 10.0056 -0.18551 14.0004 1.51649 17.3912L5.50253 14.3003Z" fill="#FBBC04"></path>
      <path d="M12.24 4.74966C13.9508 4.7232 15.6043 5.36697 16.8433 6.54867L20.2694 3.12262C18.1 1.0855 15.2207 -0.034466 12.24 0.000808666C7.70277 0.000808666 3.55359 2.55822 1.51648 6.61481L5.50252 9.70575C6.45052 6.86173 9.10935 4.74966 12.24 4.74966Z" fill="#EA4335"></path>
    </g>
    <defs>
      <clipPath id="clip0_155_1565">
        <rect width="24" height="24" fill="white"></rect>
      </clipPath>
    </defs>
  </symbol>
  <symbol fill="none" xmlns="http://www.w3.org/2000/svg" viewBox="0 0 40 40" id="icon-headphone">
    <path d="M10.4 33V16.75C10.4 14.1641 11.4114 11.6842 13.2118 9.85571C15.0121 8.02723 17.4539 7 20 7C22.5461 7 24.9879 8.02723 26.7882 9.85571C28.5886 11.6842 29.6 14.1641 29.6 16.75V33M4 22.5431C4 19.207 7.2 18.375 10.4 18.375V33C8.70261 33 7.07475 32.3152 5.87452 31.0962C4.67428 29.8772 4 28.2239 4 26.5V22.5431ZM36 22.5431C36 19.207 32.8 18.375 29.6 18.375V33C31.2974 33 32.9252 32.3152 34.1255 31.0962C35.3257 29.8772 36 28.2239 36 26.5V22.5431Z" stroke="black" stroke-width="2" stroke-linecap="round" stroke-linejoin="round"></path>
  </symbol>
  <symbol fill="none" xmlns="http://www.w3.org/2000/svg" viewBox="0 0 24 24" id="icon-instagram">
    <path d="M17 3H7C5.93913 3 4.92172 3.42143 4.17157 4.17157C3.42143 4.92172 3 5.93913 3 7V17C3 18.0609 3.42143 19.0783 4.17157 19.8284C4.92172 20.5786 5.93913 21 7 21H17C18.0609 21 19.0783 20.5786 19.8284 19.8284C20.5786 19.0783 21 18.0609 21 17V7C21 5.93913 20.5786 4.92172 19.8284 4.17157C19.0783 3.42143 18.0609 3 17 3Z" stroke="white" stroke-width="1.5" stroke-linejoin="round"></path>
    <path d="M12 16C13.0609 16 14.0783 15.5786 14.8284 14.8284C15.5786 14.0783 16 13.0609 16 12C16 10.9391 15.5786 9.92172 14.8284 9.17157C14.0783 8.42143 13.0609 8 12 8C10.9391 8 9.92172 8.42143 9.17157 9.17157C8.42143 9.92172 8 10.9391 8 12C8 13.0609 8.42143 14.0783 9.17157 14.8284C9.92172 15.5786 10.9391 16 12 16V16Z" stroke="white" stroke-width="1.5" stroke-linejoin="round"></path>
    <path d="M17.5 7.5C17.7652 7.5 18.0196 7.39464 18.2071 7.20711C18.3946 7.01957 18.5 6.76522 18.5 6.5C18.5 6.23478 18.3946 5.98043 18.2071 5.79289C18.0196 5.60536 17.7652 5.5 17.5 5.5C17.2348 5.5 16.9804 5.60536 16.7929 5.79289C16.6054 5.98043 16.5 6.23478 16.5 6.5C16.5 6.76522 16.6054 7.01957 16.7929 7.20711C16.9804 7.39464 17.2348 7.5 17.5 7.5Z" fill="white"></path>
  </symbol>
  <symbol fill="none" xmlns="http://www.w3.org/2000/svg" viewBox="0 0 24 24" id="Icon-Linkedin">
    <path d="M11.5 9.05C12.417 8.113 13.611 7.5 15 7.5C16.4587 7.5 17.8576 8.07946 18.8891 9.11091C19.9205 10.1424 20.5 11.5413 20.5 13V20.5H18.5V13C18.5 12.0717 18.1313 11.1815 17.4749 10.5251C16.8185 9.86875 15.9283 9.5 15 9.5C14.0717 9.5 13.1815 9.86875 12.5251 10.5251C11.8687 11.1815 11.5 12.0717 11.5 13V20.5H9.5V8H11.5V9.05ZM4.5 6C4.10218 6 3.72064 5.84196 3.43934 5.56066C3.15804 5.27936 3 4.89782 3 4.5C3 4.10218 3.15804 3.72064 3.43934 3.43934C3.72064 3.15804 4.10218 3 4.5 3C4.89782 3 5.27936 3.15804 5.56066 3.43934C5.84196 3.72064 6 4.10218 6 4.5C6 4.89782 5.84196 5.27936 5.56066 5.56066C5.27936 5.84196 4.89782 6 4.5 6ZM3.5 8H5.5V20.5H3.5V8Z" fill="white"></path>
  </symbol>
  <symbol fill="none" xmlns="http://www.w3.org/2000/svg" viewBox="0 0 24 24" id="Icon-logout">
    <path d="M4 12H13.5M6 15L3 12L6 9M11 7V6C11 5.46957 11.2107 4.96086 11.5858 4.58579C11.9609 4.21071 12.4696 4 13 4H18C18.5304 4 19.0391 4.21071 19.4142 4.58579C19.7893 4.96086 20 5.46957 20 6V18C20 18.5304 19.7893 19.0391 19.4142 19.4142C19.0391 19.7893 18.5304 20 18 20H13C12.4696 20 11.9609 19.7893 11.5858 19.4142C11.2107 19.0391 11 18.5304 11 18V17" stroke="black" stroke-width="1.5" stroke-linecap="round" stroke-linejoin="round"></path>
  </symbol>
  <symbol fill="none" xmlns="http://www.w3.org/2000/svg" viewBox="0 0 24 24" id="icon-mallbag">
    <path d="M3 6.29999V20.5C3 20.7652 3.10536 21.0196 3.29289 21.2071C3.48043 21.3946 3.73478 21.5 4 21.5H20C20.2652 21.5 20.5196 21.3946 20.7071 21.2071C20.8946 21.0196 21 20.7652 21 20.5V6.29999H3Z" stroke="black" stroke-width="1.5" stroke-linejoin="round"></path>
    <path d="M21 6.3L18.1665 2.5H5.8335L3 6.3M15.7775 9.6C15.7775 11.699 14.0865 13.4 12 13.4C9.9135 13.4 8.222 11.699 8.222 9.6" stroke="black" stroke-width="1.5" stroke-linecap="round" stroke-linejoin="round"></path>
  </symbol>
  <symbol fill="none" xmlns="http://www.w3.org/2000/svg" viewBox="0 0 44 44" id="Icon-Moneybag">
    <path fill-rule="evenodd" clip-rule="evenodd" d="M26.8676 22.6805C26.5863 21.8849 26.0652 21.1961 25.3762 20.709C24.6872 20.2218 23.8641 19.9602 23.0202 19.9602V18.9402H20.9803V19.9602C19.8982 19.9602 18.8604 20.39 18.0953 21.1552C17.3302 21.9203 16.9003 22.9581 16.9003 24.0401C16.9003 25.1222 17.3302 26.1599 18.0953 26.9251C18.8604 27.6902 19.8982 28.1201 20.9803 28.1201V32.2C20.0929 32.2 19.3371 31.6339 19.0555 30.8404C19.0138 30.7106 18.9464 30.5904 18.8574 30.4871C18.7684 30.3838 18.6595 30.2993 18.5373 30.2388C18.4151 30.1782 18.282 30.1428 18.1459 30.1346C18.0098 30.1264 17.8734 30.1456 17.7448 30.191C17.6162 30.2365 17.498 30.3072 17.3972 30.3991C17.2965 30.491 17.2151 30.6022 17.1581 30.7261C17.101 30.85 17.0694 30.984 17.0651 31.1203C17.0607 31.2566 17.0838 31.3924 17.1329 31.5197C17.4142 32.3153 17.9353 33.004 18.6243 33.4912C19.3133 33.9784 20.1364 34.24 20.9803 34.24V35.26H23.0202V34.24C24.1023 34.24 25.14 33.8102 25.9052 33.045C26.6703 32.2799 27.1002 31.2421 27.1002 30.1601C27.1002 29.078 26.6703 28.0402 25.9052 27.2751C25.14 26.51 24.1023 26.0801 23.0202 26.0801V22.0001C23.4421 22 23.8536 22.1307 24.1982 22.3742C24.5427 22.6177 24.8032 22.9621 24.9439 23.3598C25.034 23.6149 25.2217 23.8238 25.4658 23.9404C25.5867 23.9982 25.7177 24.0316 25.8515 24.0388C25.9853 24.0459 26.1191 24.0266 26.2454 23.982C26.3717 23.9374 26.488 23.8683 26.5877 23.7788C26.6873 23.6892 26.7683 23.581 26.8261 23.4601C26.8839 23.3392 26.9173 23.2082 26.9244 23.0744C26.9315 22.9407 26.9122 22.8068 26.8676 22.6805ZM20.9803 22.0001C20.4392 22.0001 19.9203 22.2151 19.5378 22.5976C19.1552 22.9802 18.9403 23.4991 18.9403 24.0401C18.9403 24.5812 19.1552 25.1 19.5378 25.4826C19.9203 25.8652 20.4392 26.0801 20.9803 26.0801V22.0001ZM23.0202 32.2C23.5613 32.2 24.0801 31.9851 24.4627 31.6025C24.8453 31.22 25.0602 30.7011 25.0602 30.1601C25.0602 29.619 24.8453 29.1001 24.4627 28.7176C24.0801 28.335 23.5613 28.1201 23.0202 28.1201V32.2Z" fill="black"></path>
    <path fill-rule="evenodd" clip-rule="evenodd" d="M10.9364 6.31377C13.4395 5.08876 17.5459 3.64038 22.04 3.64038C26.4402 3.64038 30.4386 5.02858 32.9284 6.23727L33.0691 6.30561C33.8198 6.67689 34.4257 7.02776 34.8521 7.31234L31.0842 12.8203C39.7704 21.7003 46.4799 40.3569 22.04 40.3569C-2.39994 40.3569 4.129 22.0389 12.8907 12.8203L9.14734 7.31234C9.436 7.12364 9.80217 6.90434 10.2387 6.67179C10.455 6.55551 10.6875 6.43617 10.9364 6.31479V6.31377ZM28.6628 12.7468L31.6789 8.33743C28.8739 8.53938 25.5365 9.1983 22.3235 10.1285C20.0286 10.7915 17.4786 10.6905 15.1173 10.255C14.5223 10.1447 13.9314 10.0134 13.3456 9.86129L15.304 12.7448C19.5012 14.2391 24.4645 14.2391 28.6628 12.7468ZM14.1259 14.4829C19.0371 16.38 24.9398 16.38 29.8511 14.4808C31.9011 16.6419 33.616 19.0977 34.9388 21.7666C36.3178 24.5797 37.0685 27.3918 36.9461 29.8153C36.8278 32.1541 35.9077 34.1523 33.8066 35.6374C31.6167 37.1847 27.9335 38.3169 22.039 38.3169C16.1383 38.3169 12.4378 37.2041 10.2275 35.6741C8.11103 34.2074 7.18182 32.2368 7.05025 29.9296C6.91255 27.5326 7.64694 24.7348 9.02086 21.9022C10.3315 19.2013 12.1604 16.6014 14.1259 14.4829ZM12.9529 7.63465C13.7689 7.87741 14.6216 8.08855 15.4866 8.24869C17.6795 8.6526 19.8786 8.71176 21.7554 8.16811C23.9425 7.53097 26.1669 7.02987 28.4159 6.66771C26.5392 6.10263 24.3441 5.68036 22.039 5.68036C18.5251 5.68036 15.2479 6.66057 12.9529 7.63465Z" fill="black"></path>
  </symbol>
  <symbol fill="none" xmlns="http://www.w3.org/2000/svg" viewBox="0 0 40 40" id="Icon-money-hand-line">
    <path d="M31.6667 36.6666V24.8333C31.6664 23.301 31.3642 21.7837 30.7773 20.3681C30.1905 18.9526 29.3306 17.6665 28.2467 16.5833L24.9967 13.3333V24.3116C24.9967 25.795 23.2017 26.54 22.1517 25.49L19.9934 23.3333C19.16 22.5 17.1584 22 15.8234 23.3333C14.49 24.6666 14.99 26.6666 15.8234 27.5L24.9967 36.6666" stroke="black" stroke-width="2" stroke-linecap="round" stroke-linejoin="round"></path>
    <path d="M18.3333 3.33331H21.6667C22.5507 3.33331 23.3986 3.6845 24.0237 4.30962C24.6488 4.93474 25 5.78259 25 6.66665V9.99998M18.3333 3.33331C18.3333 5.55498 19.6667 9.99998 25 9.99998M18.3333 3.33331H15M25 9.99998V20M8.33334 20V9.99998M15 3.33331H11.6667C10.7826 3.33331 9.93478 3.6845 9.30965 4.30962C8.68453 4.93474 8.33334 5.78259 8.33334 6.66665V9.99998M15 3.33331C15 5.55498 13.6667 9.99998 8.33334 9.99998M8.33334 20V23.3333C8.33334 24.2174 8.68453 25.0652 9.30965 25.6903C9.93478 26.3155 10.7826 26.6666 11.6667 26.6666H15C15 24.445 13.6667 20 8.33334 20Z" stroke="black" stroke-width="2" stroke-linecap="round" stroke-linejoin="round"></path>
    <path d="M15 15C15 15.9205 15.7462 16.6666 16.6667 16.6666C17.5872 16.6666 18.3333 15.9205 18.3333 15C18.3333 14.0795 17.5872 13.3333 16.6667 13.3333C15.7462 13.3333 15 14.0795 15 15Z" stroke="black" stroke-width="2" stroke-linecap="round" stroke-linejoin="round"></path>
  </symbol>
  <symbol fill="none" xmlns="http://www.w3.org/2000/svg" viewBox="0 0 24 24" id="Icon-Reviews">
    <path d="M11.3789 4.54785C11.5559 3.97537 12.3269 3.93954 12.5781 4.44043L12.6211 4.54785L13.8184 8.4209C14.0968 9.32148 14.9295 9.93631 15.8721 9.93652H19.8281C20.4125 9.93652 20.6828 10.6324 20.3047 11.0293L20.2207 11.1045L16.8906 13.623C16.214 14.1349 15.9054 14.9929 16.0898 15.8105L16.1338 15.9736L17.3867 20.0264C17.5618 20.5935 16.9572 21.0572 16.4668 20.7959L16.3701 20.7344L13.3076 18.3877C12.5844 17.8337 11.5971 17.7994 10.8408 18.2842L10.6924 18.3877L7.61328 20.7471C7.14271 21.107 6.49865 20.7024 6.57227 20.1523L6.59668 20.04L7.83203 16.0049C8.07847 15.2 7.83198 14.3308 7.21289 13.7754L7.08398 13.668L3.73438 11.1025C3.24116 10.7247 3.50858 9.93652 4.12988 9.93652H8.12793C9.01155 9.93633 9.79867 9.39635 10.123 8.58691L10.1816 8.4209L11.3789 4.54785Z" stroke="black" stroke-width="1.5"></path>
  </symbol>
  <symbol fill="none" xmlns="http://www.w3.org/2000/svg" viewBox="0 0 24 24" id="icons arrow-right">
    <path d="M3.5 12H20M20 12L13 5M20 12L13 19" stroke="black" stroke-width="1.5" stroke-linecap="round" stroke-linejoin="round"></path>
  </symbol>
  <symbol fill="none" xmlns="http://www.w3.org/2000/svg" viewBox="0 0 24 24" id="icons_arrow-down">
    <path d="M12 20V4M5 13L12 20L19 13" stroke="black" stroke-width="2" stroke-linecap="round" stroke-linejoin="round"></path>
  </symbol>
  <symbol fill="none" xmlns="http://www.w3.org/2000/svg" viewBox="0 0 24 24" id="icons_arrow-down-left">
    <path d="M6 18L18 6M6 8V18H16" stroke="black" stroke-width="2" stroke-linecap="round" stroke-linejoin="round"></path>
  </symbol>
  <symbol fill="none" xmlns="http://www.w3.org/2000/svg" viewBox="0 0 24 24" id="icons_arrow-down-right">
    <path d="M18 18L6 6M8 18H18V8" stroke="black" stroke-width="2" stroke-linecap="round" stroke-linejoin="round"></path>
  </symbol>
  <symbol fill="none" xmlns="http://www.w3.org/2000/svg" viewBox="0 0 24 24" id="icons_arrow-left">
    <path d="M11 5L4 12L11 19M4 12H20" stroke="black" stroke-width="2" stroke-linecap="round" stroke-linejoin="round"></path>
  </symbol>
  <symbol fill="none" xmlns="http://www.w3.org/2000/svg" viewBox="0 0 24 24" id="icons_arrow-up">
    <path d="M12 20V4M5 11L12 4L19 11" stroke="black" stroke-width="2" stroke-linecap="round" stroke-linejoin="round"></path>
  </symbol>
  <symbol fill="none" xmlns="http://www.w3.org/2000/svg" viewBox="0 0 24 24" id="icons_fire">
    <path d="M12 22C7.03 22 3 19.418 3 15V14.912C3 12.794 4.338 11.1 6.375 10C8.324 8.948 9.476 7.01 9.188 5L8.625 2L10.711 2.795C14.468 4.225 17.597 6.707 19.625 9.861C20.5167 11.2311 20.9941 12.8293 21 14.464V15C21 16.562 20.496 17.895 19.625 18.965" stroke="black" stroke-width="1.5" stroke-linecap="round" stroke-linejoin="round"></path>
    <path d="M12 22C10.343 22 9 20.567 9 18.8C9 17.4 10.016 16.279 10.91 15.252L12 14L13.09 15.252C13.984 16.28 15 17.4 15 18.8C15 20.567 13.657 22 12 22Z" stroke="black" stroke-width="1.5" stroke-linecap="round" stroke-linejoin="round"></path>
  </symbol>
  <symbol fill="none" xmlns="http://www.w3.org/2000/svg" viewBox="0 0 24 24" id="icons_headphone">
    <path d="M6 20V10C6 8.4087 6.63214 6.88258 7.75736 5.75736C8.88258 4.63214 10.4087 4 12 4C13.5913 4 15.1174 4.63214 16.2426 5.75736C17.3679 6.88258 18 8.4087 18 10V20M2 13.565C2 11.512 4 11 6 11V20C4.93913 20 3.92172 19.5786 3.17157 18.8284C2.42143 18.0783 2 17.0609 2 16V13.565ZM22 13.565C22 11.512 20 11 18 11V20C19.0609 20 20.0783 19.5786 20.8284 18.8284C21.5786 18.0783 22 17.0609 22 16V13.565Z" stroke="black" stroke-width="1.5" stroke-linecap="round" stroke-linejoin="round"></path>
  </symbol>
  <symbol fill="none" xmlns="http://www.w3.org/2000/svg" viewBox="0 0 44 44" id="Icon-Sale">
    <path d="M22 41C32.4934 41 41 32.4934 41 22C41 11.5066 32.4934 3 22 3C11.5066 3 3 11.5066 3 22C3 32.4934 11.5066 41 22 41Z" stroke="black" stroke-width="2.75" stroke-linecap="round" stroke-linejoin="round"></path>
    <path d="M27.6 16.0017C27.2377 15.3734 26.7113 14.8554 26.0772 14.5032C25.443 14.151 24.725 13.9779 24 14.0023H20C18.9391 14.0023 17.9217 14.4236 17.1716 15.1735C16.4214 15.9234 16 16.9406 16 18.0011C16 19.0617 16.4214 20.0788 17.1716 20.8288C17.9217 21.5787 18.9391 22 20 22H24C25.0609 22 26.0783 22.4213 26.8284 23.1712C27.5786 23.9212 28 24.9383 28 25.9989C28 27.0594 27.5786 28.0766 26.8284 28.8265C26.0783 29.5764 25.0609 29.9977 24 29.9977H20C19.275 30.0221 18.557 29.849 17.9228 29.4968C17.2887 29.1446 16.7623 28.6266 16.4 27.9983" stroke="black" stroke-width="2.75" stroke-linecap="round" stroke-linejoin="round"></path>
    <path d="M22 9V13.3333M22 30.6667V35" stroke="black" stroke-width="2.75" stroke-linecap="round" stroke-linejoin="round"></path>
  </symbol>
  <symbol fill="none" xmlns="http://www.w3.org/2000/svg" viewBox="0 0 40 40" id="Icon-secure (1)">
    <path d="M20 37.9334C18.1833 37.9334 16.3833 37.4 14.9667 36.35L7.79999 31C5.89999 29.5834 4.41666 26.6167 4.41666 24.2667V11.8667C4.41666 9.30002 6.29999 6.56669 8.71666 5.66669L17.0333 2.55002C18.6833 1.93336 21.2833 1.93336 22.9333 2.55002L31.25 5.66669C33.6667 6.56669 35.55 9.30002 35.55 11.8667V24.25C35.55 26.6167 34.0667 29.5667 32.1667 30.9834L25 36.3334C23.6167 37.4 21.8167 37.9334 20 37.9334ZM17.9167 4.90002L9.59999 8.01669C8.18332 8.55002 6.93332 10.35 6.93332 11.8834V24.2667C6.93332 25.85 8.04999 28.0667 9.29999 29L16.4667 34.35C18.3833 35.7834 21.6167 35.7834 23.55 34.35L30.7167 29C31.9833 28.05 33.0833 25.85 33.0833 24.2667V11.8667C33.0833 10.35 31.8333 8.55002 30.4167 8.00002L22.1 4.88336C20.9667 4.48336 19.0333 4.48336 17.9167 4.90002Z" fill="black"></path>
    <path d="M17.7667 23.7166C17.45 23.7166 17.1333 23.6 16.8833 23.35L14.2 20.6666C13.7167 20.1833 13.7167 19.3833 14.2 18.9C14.6833 18.4166 15.4833 18.4166 15.9667 18.9L17.7667 20.7L24.05 14.4166C24.5333 13.9333 25.3333 13.9333 25.8167 14.4166C26.3 14.9 26.3 15.7 25.8167 16.1833L18.65 23.35C18.4 23.6 18.0833 23.7166 17.7667 23.7166Z" fill="black"></path>
  </symbol>
  <symbol fill="none" xmlns="http://www.w3.org/2000/svg" viewBox="0 0 40 40" id="icon-secure">
    <path d="M20 34.9999C20 34.9999 33 30.7142 33 19.9999" stroke="black" stroke-width="2" stroke-linecap="round" stroke-linejoin="round"></path>
    <path d="M33 19.9999V7.1428C33 7.1428 28.6667 4.99994 20 4.99994" stroke="black" stroke-width="2" stroke-linecap="round" stroke-linejoin="round"></path>
    <path d="M20 34.9999C20 34.9999 7 30.7142 7 19.9999" stroke="black" stroke-width="2" stroke-linecap="round" stroke-linejoin="round"></path>
    <path d="M7 19.9999V7.1428C7 7.1428 11.3333 4.99994 20 4.99994" stroke="black" stroke-width="2" stroke-linecap="round" stroke-linejoin="round"></path>
    <path d="M29 10.9999C20.4286 17.4285 18.2857 25.9999 18.2857 25.9999C18.2857 25.9999 16.1429 23.4422 14 21.7142" stroke="black" stroke-width="2" stroke-linecap="round" stroke-linejoin="round"></path>
  </symbol>
  <symbol fill="none" xmlns="http://www.w3.org/2000/svg" viewBox="0 0 24 24" id="icon-send">
    <path d="M9.91199 12H3.99999L2.02299 4.13499C2.01033 4.08928 2.00262 4.04234 1.99999 3.99499C1.97799 3.27399 2.77199 2.77399 3.45999 3.10399L22 12L3.45999 20.896C2.77999 21.223 1.99599 20.737 1.99999 20.029C2.00201 19.9657 2.01313 19.9031 2.03299 19.843L3.49999 15" stroke="white" stroke-width="1.5" stroke-linecap="round" stroke-linejoin="round"></path>
  </symbol>
  <symbol fill="none" xmlns="http://www.w3.org/2000/svg" viewBox="0 0 44 44" id="Icon-Shop">
    <path d="M8.00003 18.8889V32.8888C8.00003 33.714 8.32781 34.5053 8.91125 35.0887C9.4947 35.6722 10.286 36 11.1111 36H32.8889C33.714 36 34.5054 35.6722 35.0888 35.0887C35.6722 34.5053 36 33.714 36 32.8888V18.8889" stroke="#1B1A1F" stroke-width="2.2"></path>
    <path d="M26.4069 36V26.6667C26.4069 25.8416 26.0792 25.0503 25.4957 24.4668C24.9123 23.8834 24.1209 23.5556 23.2958 23.5556H20.1847C19.3596 23.5556 18.5683 23.8834 17.9848 24.4668C17.4014 25.0503 17.0736 25.8416 17.0736 26.6667V36" stroke="#1B1A1F" stroke-width="2.2" stroke-miterlimit="16"></path>
    <path d="M37.2724 17.8996L34.6373 8.67667C34.5815 8.48167 34.4637 8.31015 34.3018 8.18806C34.1398 8.06597 33.9425 7.99995 33.7397 8H27.4444L28.1833 16.8729C28.1945 17.0156 28.2395 17.1535 28.3147 17.2753C28.39 17.397 28.4931 17.499 28.6157 17.5729C29.2224 17.9353 30.4077 18.6042 31.3333 18.8889C32.9137 19.3758 35.2222 19.2 36.5382 19.0382C36.6661 19.0217 36.7889 18.9774 36.898 18.9085C37.007 18.8396 37.0998 18.7478 37.1697 18.6394C37.2396 18.531 37.285 18.4086 37.3027 18.2808C37.3205 18.153 37.3101 18.0229 37.2724 17.8996Z" stroke="#1B1A1F" stroke-width="2.2"></path>
    <path d="M25.1112 18.8889C25.9947 18.6167 27.1147 17.996 27.7401 17.6258C27.8858 17.539 28.0041 17.4128 28.0811 17.2617C28.1582 17.1105 28.191 16.9407 28.1756 16.7718L27.4445 8H16.5556L15.8245 16.7718C15.8088 16.941 15.8414 17.1111 15.9185 17.2626C15.9956 17.414 16.114 17.5404 16.2601 17.6273C16.8854 17.996 18.0054 18.6167 18.8889 18.8889C21.2114 19.6044 22.7887 19.6044 25.1112 18.8889V18.8889Z" stroke="#1B1A1F" stroke-width="2.2"></path>
    <path d="M9.36267 8.67667L6.72756 17.9011C6.69036 18.0243 6.68042 18.1541 6.69842 18.2815C6.71641 18.4089 6.76192 18.5308 6.83178 18.6389C6.90164 18.7469 6.99418 18.8385 7.10297 18.9071C7.21176 18.9758 7.33419 19.02 7.46178 19.0367C8.77622 19.2 11.0862 19.3742 12.6667 18.8889C13.5922 18.6042 14.7791 17.9353 15.3842 17.5744C15.507 17.5004 15.6103 17.3982 15.6856 17.2761C15.7608 17.1541 15.8057 17.0158 15.8167 16.8729L16.5556 8H10.2602C10.0574 7.99995 9.8601 8.06597 9.69816 8.18806C9.53621 8.31015 9.41844 8.48167 9.36267 8.67667V8.67667Z" stroke="#1B1A1F" stroke-width="2.2"></path>
  </symbol>
  <symbol fill="none" xmlns="http://www.w3.org/2000/svg" viewBox="0 0 44 44" id="Icon-Shopping bag">
    <path d="M12.8333 12.8334V9.16669C12.8334 8.10497 13.1407 7.06594 13.7182 6.17504C14.2958 5.28413 15.1188 4.57943 16.088 4.146C17.0573 3.71256 18.1312 3.56892 19.1803 3.73241C20.2293 3.8959 21.2086 4.35954 22 5.06735C22.7914 4.35954 23.7707 3.8959 24.8197 3.73241C25.8688 3.56892 26.9428 3.71256 27.912 4.146C28.8812 4.57943 29.7043 5.28413 30.2818 6.17504C30.8593 7.06594 31.1667 8.10497 31.1667 9.16669V12.8334H33.9167C34.646 12.8334 35.3455 13.1231 35.8612 13.6388C36.3769 14.1545 36.6667 14.854 36.6667 15.5834V33.9259C36.6667 35.6252 35.9916 37.255 34.79 38.4566C33.5883 39.6583 31.9586 40.3334 30.2592 40.3334H14.6667C12.7218 40.3334 10.8565 39.5607 9.48123 38.1855C8.10596 36.8102 7.33334 34.9449 7.33334 33V15.5834C7.33334 14.854 7.62307 14.1545 8.1388 13.6388C8.65452 13.1231 9.354 12.8334 10.0833 12.8334H12.8333ZM24.9975 37.5834C24.2496 36.5105 23.8496 35.2337 23.8517 33.9259V15.5834H10.0833V33C10.0833 33.6019 10.2019 34.1979 10.4322 34.754C10.6626 35.3101 11.0002 35.8153 11.4258 36.2409C11.8514 36.6665 12.3566 37.0041 12.9127 37.2345C13.4688 37.4648 14.0648 37.5834 14.6667 37.5834H24.9975ZM21.0833 12.8334V9.16669C21.0833 8.43734 20.7936 7.73787 20.2779 7.22214C19.7622 6.70642 19.0627 6.41669 18.3333 6.41669C17.604 6.41669 16.9045 6.70642 16.3888 7.22214C15.8731 7.73787 15.5833 8.43734 15.5833 9.16669V12.8334H21.0833ZM23.8333 12.8334H28.4167V9.16669C28.4167 8.60062 28.2421 8.04832 27.9166 7.58519C27.5911 7.12205 27.1306 6.77065 26.598 6.57894C26.0654 6.38723 25.4866 6.36455 24.9406 6.51401C24.3946 6.66346 23.9081 6.97777 23.5473 7.41402C23.7325 7.96402 23.8333 8.55435 23.8333 9.16669V12.8334ZM26.6017 33.9259C26.6017 34.8959 26.987 35.8262 27.6729 36.5121C28.3588 37.198 29.2891 37.5834 30.2592 37.5834C31.2292 37.5834 32.1595 37.198 32.8454 36.5121C33.5313 35.8262 33.9167 34.8959 33.9167 33.9259V15.5834H26.6017V33.9259Z" fill="black"></path>
  </symbol>
  <symbol fill="none" xmlns="http://www.w3.org/2000/svg" viewBox="0 0 24 24" id="Icon-Twitter">
    <g clip-path="url(#clip0_142_1642)">
      <path d="M14.1211 4.44336C14.8883 4.1364 15.7199 4.03349 16.5352 4.1416L16.8838 4.20117C17.8082 4.39388 18.6557 4.85462 19.3193 5.52637L19.3486 5.55664H19.3906C19.7296 5.55426 20.0806 5.59738 20.498 5.53809C20.882 5.48352 21.3278 5.34203 21.915 5.00977C21.6091 6.49447 21.4324 7.16729 20.7646 8.08301L20.7451 8.10938V8.14258C20.7451 11.9414 19.5781 14.7564 17.8262 16.7393C16.1825 18.5994 14.0186 19.7335 11.8057 20.2568L11.3623 20.3535C9.7452 20.6761 7.754 20.5731 5.99609 20.2109C5.11794 20.03 4.30096 19.7842 3.62012 19.4971C3.03699 19.2511 2.56006 18.9759 2.22949 18.6885C2.6606 18.6463 3.41195 18.553 4.24414 18.3594C5.24389 18.1267 6.37194 17.749 7.20312 17.1406L7.31934 17.0557L7.19922 16.9766C6.50766 16.5207 4.81165 15.4984 3.73145 13.5166C2.66701 11.5637 2.19288 8.66296 3.91406 4.42578C5.47307 6.22095 7.05692 7.48915 8.66602 8.22363L8.99512 8.36719C9.57627 8.60556 9.94226 8.72333 10.2314 8.79102C10.5195 8.85841 10.7322 8.8754 10.9922 8.91113L11.2871 8.95215L11.1074 8.77148C11.1323 7.84188 11.4255 6.93867 11.9541 6.17285C12.4234 5.49307 13.0591 4.94768 13.7979 4.58691L14.1211 4.44336ZM15.9053 5.90137C15.119 5.90124 14.3638 6.20994 13.8027 6.76074C13.3119 7.24267 13.0038 7.87627 12.9248 8.55371L12.9053 8.84668L12.877 10.4209C12.8756 10.4914 12.8592 10.5613 12.8291 10.625C12.799 10.6887 12.7556 10.7452 12.7021 10.791C12.6487 10.8368 12.5861 10.8716 12.5186 10.8916C12.4848 10.9016 12.45 10.9075 12.415 10.9102L12.3105 10.9072L10.749 10.6953C8.71753 10.4183 6.7663 9.48248 4.88965 7.91895L4.75781 7.80859L4.72754 7.97754C4.42573 9.64812 4.56793 11.0709 5.14746 12.3018C5.69051 13.455 6.61342 14.4312 7.89453 15.2832L8.15625 15.4521L9.90234 16.5498C9.97145 16.5932 10.0296 16.6529 10.0703 16.7236C10.111 16.7944 10.1339 16.8744 10.1367 16.9561C10.1395 17.0377 10.1217 17.1189 10.0859 17.1924C10.0681 17.229 10.0455 17.2629 10.0195 17.2939L9.93066 17.3779L8.33887 18.541L8.11523 18.7041L8.3916 18.7207C9.22554 18.7727 10.0251 18.7474 10.7188 18.6396L11.0098 18.5879C13.3887 18.1129 15.375 16.9789 16.7656 15.2207C18.1559 13.4627 18.9453 11.0883 18.9453 8.14258C18.9453 7.99705 18.8715 7.78499 18.7441 7.55762C18.6144 7.32598 18.4211 7.06491 18.167 6.82031C17.6901 6.36143 16.9936 5.95525 16.0889 5.90625L15.9053 5.90137Z" fill="white" stroke="black" stroke-width="0.2"></path>
    </g>
    <defs>
      <clipPath id="clip0_142_1642">
        <rect width="24" height="24" fill="white"></rect>
      </clipPath>
    </defs>
  </symbol>
  <symbol fill="none" xmlns="http://www.w3.org/2000/svg" viewBox="0 0 51 26" id="New Button">
    <rect width="51" height="26" rx="4" fill="#00FF66"></rect>
    <path d="M19.5 17H18.408L14.016 10.34V17H12.924V8.624H14.016L18.408 15.272V8.624H19.5V17ZM22.4535 9.524V12.32H25.5015V13.22H22.4535V16.1H25.8615V17H21.3615V8.624H25.8615V9.524H22.4535ZM38.0258 8.636L35.6018 17H34.3778L32.4338 10.268L30.4178 17L29.2058 17.012L26.8658 8.636H28.0298L29.8538 15.728L31.8698 8.636H33.0938L35.0138 15.704L36.8498 8.636H38.0258Z" fill="#FAFAFA"></path>
  </symbol>
  <symbol fill="none" xmlns="http://www.w3.org/2000/svg" viewBox="0 0 100 20" id="One Star">
    <path d="M16.673 10.1717C17.7437 9.36184 17.1709 7.65517 15.8284 7.65517H13.3992C12.7853 7.65517 12.243 7.25521 12.0617 6.66868L11.3375 4.32637C10.9309 3.01106 9.0691 3.01106 8.66246 4.32637L7.93832 6.66868C7.75699 7.25521 7.21469 7.65517 6.60078 7.65517H4.12961C2.79142 7.65517 2.21592 9.35274 3.27822 10.1665L5.39469 11.7879C5.85885 12.1435 6.05314 12.7501 5.88196 13.3092L5.11296 15.8207C4.71416 17.1232 6.22167 18.1704 7.30301 17.342L9.14861 15.9281C9.65097 15.5432 10.349 15.5432 10.8514 15.9281L12.6807 17.3295C13.7636 18.159 15.2725 17.1079 14.8696 15.8046L14.09 13.2827C13.9159 12.7198 14.113 12.1081 14.5829 11.7526L16.673 10.1717Z" fill="#FFAD33"></path>
    <path opacity="0.25" d="M36.673 10.1717C37.7437 9.36184 37.1709 7.65517 35.8284 7.65517H33.3992C32.7853 7.65517 32.243 7.25521 32.0617 6.66868L31.3375 4.32637C30.9309 3.01106 29.0691 3.01106 28.6625 4.32637L27.9383 6.66868C27.757 7.25521 27.2147 7.65517 26.6008 7.65517H24.1296C22.7914 7.65517 22.2159 9.35274 23.2782 10.1665L25.3947 11.7879C25.8588 12.1435 26.0531 12.7501 25.882 13.3092L25.113 15.8207C24.7142 17.1232 26.2217 18.1704 27.303 17.342L29.1486 15.9281C29.651 15.5432 30.349 15.5432 30.8514 15.9281L32.6807 17.3295C33.7636 18.159 35.2725 17.1079 34.8696 15.8046L34.09 13.2827C33.9159 12.7198 34.113 12.1081 34.5829 11.7526L36.673 10.1717Z" fill="black"></path>
    <path opacity="0.25" d="M56.673 10.1717C57.7437 9.36184 57.1709 7.65517 55.8284 7.65517H53.3992C52.7853 7.65517 52.243 7.25521 52.0617 6.66868L51.3375 4.32637C50.9309 3.01106 49.0691 3.01106 48.6625 4.32637L47.9383 6.66868C47.757 7.25521 47.2147 7.65517 46.6008 7.65517H44.1296C42.7914 7.65517 42.2159 9.35274 43.2782 10.1665L45.3947 11.7879C45.8588 12.1435 46.0531 12.7501 45.882 13.3092L45.113 15.8207C44.7142 17.1232 46.2217 18.1704 47.303 17.342L49.1486 15.9281C49.651 15.5432 50.349 15.5432 50.8514 15.9281L52.6807 17.3295C53.7636 18.159 55.2725 17.1079 54.8696 15.8046L54.09 13.2827C53.9159 12.7198 54.113 12.1081 54.5829 11.7526L56.673 10.1717Z" fill="black"></path>
    <path opacity="0.25" d="M76.673 10.1717C77.7437 9.36184 77.1709 7.65517 75.8284 7.65517H73.3992C72.7853 7.65517 72.243 7.25521 72.0617 6.66868L71.3375 4.32637C70.9309 3.01106 69.0691 3.01106 68.6625 4.32637L67.9383 6.66868C67.757 7.25521 67.2147 7.65517 66.6008 7.65517H64.1296C62.7914 7.65517 62.2159 9.35274 63.2782 10.1665L65.3947 11.7879C65.8588 12.1435 66.0531 12.7501 65.882 13.3092L65.113 15.8207C64.7142 17.1232 66.2217 18.1704 67.303 17.342L69.1486 15.9281C69.651 15.5432 70.349 15.5432 70.8514 15.9281L72.6807 17.3295C73.7636 18.159 75.2725 17.1079 74.8696 15.8046L74.09 13.2827C73.9159 12.7198 74.113 12.1081 74.5829 11.7526L76.673 10.1717Z" fill="black"></path>
    <path opacity="0.25" d="M96.673 10.1717C97.7437 9.36184 97.1709 7.65517 95.8284 7.65517H93.3992C92.7853 7.65517 92.243 7.25521 92.0617 6.66868L91.3375 4.32637C90.9309 3.01106 89.0691 3.01106 88.6625 4.32637L87.9383 6.66868C87.757 7.25521 87.2147 7.65517 86.6008 7.65517H84.1296C82.7914 7.65517 82.2159 9.35274 83.2782 10.1665L85.3947 11.7879C85.8588 12.1435 86.0531 12.7501 85.882 13.3092L85.113 15.8207C84.7142 17.1232 86.2217 18.1704 87.303 17.342L89.1486 15.9281C89.651 15.5432 90.349 15.5432 90.8514 15.9281L92.6807 17.3295C93.7636 18.159 95.2725 17.1079 94.8696 15.8046L94.09 13.2827C93.9159 12.7198 94.113 12.1081 94.5829 11.7526L96.673 10.1717Z" fill="black"></path>
  </symbol>
  <symbol fill="none" xmlns="http://www.w3.org/2000/svg" viewBox="0 0 24 24" id="Quick View">
    <path d="M21.257 10.962C21.731 11.582 21.731 12.419 21.257 13.038C19.764 14.987 16.182 19 12 19C7.81801 19 4.23601 14.987 2.74301 13.038C2.51239 12.7411 2.38721 12.3759 2.38721 12C2.38721 11.6241 2.51239 11.2589 2.74301 10.962C4.23601 9.013 7.81801 5 12 5C16.182 5 19.764 9.013 21.257 10.962V10.962Z" stroke="black" stroke-width="1.5" stroke-linecap="round" stroke-linejoin="round"></path>
    <path d="M12 15C13.6569 15 15 13.6569 15 12C15 10.3431 13.6569 9 12 9C10.3431 9 9 10.3431 9 12C9 13.6569 10.3431 15 12 15Z" stroke="black" stroke-width="1.5" stroke-linecap="round" stroke-linejoin="round"></path>
  </symbol>
  <symbol fill="none" xmlns="http://www.w3.org/2000/svg" viewBox="0 0 80 80" id="Services=Customer service">
    <path opacity="0.3" d="M80 40C80 62.0914 62.0914 80 40 80C17.9086 80 0 62.0914 0 40C0 17.9086 17.9086 0 40 0C62.0914 0 80 17.9086 80 40ZM10.9071 40C10.9071 56.0675 23.9325 69.0929 40 69.0929C56.0675 69.0929 69.0929 56.0675 69.0929 40C69.0929 23.9325 56.0675 10.9071 40 10.9071C23.9325 10.9071 10.9071 23.9325 10.9071 40Z" fill="#2F2E30"></path>
    <circle cx="40" cy="40" r="29" fill="black"></circle>
    <path d="M30.4 53V36.75C30.4 34.1641 31.4114 31.6842 33.2118 29.8557C35.0121 28.0272 37.4539 27 40 27C42.5461 27 44.9879 28.0272 46.7882 29.8557C48.5886 31.6842 49.6 34.1641 49.6 36.75V53M24 42.5431C24 39.207 27.2 38.375 30.4 38.375V53C28.7026 53 27.0747 52.3152 25.8745 51.0962C24.6743 49.8772 24 48.2239 24 46.5V42.5431ZM56 42.5431C56 39.207 52.8 38.375 49.6 38.375V53C51.2974 53 52.9252 52.3152 54.1255 51.0962C55.3257 49.8772 56 48.2239 56 46.5V42.5431Z" stroke="#FAFAFA" stroke-width="2" stroke-linecap="round" stroke-linejoin="round"></path>
  </symbol>
  <symbol fill="none" xmlns="http://www.w3.org/2000/svg" viewBox="0 0 80 80" id="Services=Delivery">
    <path opacity="0.3" d="M80 40C80 62.0914 62.0914 80 40 80C17.9086 80 0 62.0914 0 40C0 17.9086 17.9086 0 40 0C62.0914 0 80 17.9086 80 40ZM10.9071 40C10.9071 56.0675 23.9325 69.0929 40 69.0929C56.0675 69.0929 69.0929 56.0675 69.0929 40C69.0929 23.9325 56.0675 10.9071 40 10.9071C23.9325 10.9071 10.9071 23.9325 10.9071 40Z" fill="#2F2E30"></path>
    <circle cx="40" cy="40" r="29" fill="black"></circle>
    <g clip-path="url(#clip0_120_1424)">
      <path d="M31.6666 51.6667C33.5076 51.6667 35 50.1743 35 48.3333C35 46.4924 33.5076 45 31.6666 45C29.8257 45 28.3333 46.4924 28.3333 48.3333C28.3333 50.1743 29.8257 51.6667 31.6666 51.6667Z" stroke="#FAFAFA" stroke-width="2" stroke-linecap="round" stroke-linejoin="round"></path>
      <path d="M48.3333 51.6667C50.1743 51.6667 51.6667 50.1743 51.6667 48.3333C51.6667 46.4924 50.1743 45 48.3333 45C46.4924 45 45 46.4924 45 48.3333C45 50.1743 46.4924 51.6667 48.3333 51.6667Z" stroke="#FAFAFA" stroke-width="2" stroke-linecap="round" stroke-linejoin="round"></path>
      <path d="M28.3333 48.3335H27C25.8954 48.3335 25 47.4381 25 46.3335V41.6668M23.3333 28.3335H39.6666C40.7712 28.3335 41.6666 29.2289 41.6666 30.3335V48.3335M35 48.3335H45M51.6667 48.3335H53C54.1046 48.3335 55 47.4381 55 46.3335V38.3335M55 38.3335H41.6666M55 38.3335L50.5826 30.9712C50.2211 30.3688 49.5701 30.0002 48.8676 30.0002H41.6666" stroke="#FAFAFA" stroke-width="2" stroke-linecap="round" stroke-linejoin="round"></path>
      <path d="M28 48H26.6667C25.5621 48 24.6667 47.1046 24.6667 46V41.3333M23 28H39.3333C40.4379 28 41.3333 28.8954 41.3333 30V48M35 48H44.6667M52 48H52.6667C53.7712 48 54.6667 47.1046 54.6667 46V38M54.6667 38H41.3333M54.6667 38L50.2493 30.6377C49.8878 30.0353 49.2368 29.6667 48.5343 29.6667H41.3333" stroke="#FAFAFA" stroke-width="2" stroke-linecap="round" stroke-linejoin="round"></path>
      <path d="M25 31.8182H31.6667" stroke="#FAFAFA" stroke-width="2" stroke-linecap="round" stroke-linejoin="round"></path>
      <path d="M21.8182 35.4545H28.4848" stroke="#FAFAFA" stroke-width="2" stroke-linecap="round" stroke-linejoin="round"></path>
      <path d="M25 39.0909H31.6667" stroke="#FAFAFA" stroke-width="2" stroke-linecap="round" stroke-linejoin="round"></path>
    </g>
    <defs>
      <clipPath id="clip0_120_1424">
        <rect width="40" height="40" fill="white" transform="translate(20 20)"></rect>
      </clipPath>
    </defs>
  </symbol>
  <symbol fill="none" xmlns="http://www.w3.org/2000/svg" viewBox="0 0 80 80" id="Services=Group 1000005937">
    <path opacity="0.3" d="M80 40C80 62.0914 62.0914 80 40 80C17.9086 80 0 62.0914 0 40C0 17.9086 17.9086 0 40 0C62.0914 0 80 17.9086 80 40ZM10.9071 40C10.9071 56.0675 23.9325 69.0929 40 69.0929C56.0675 69.0929 69.0929 56.0675 69.0929 40C69.0929 23.9325 56.0675 10.9071 40 10.9071C23.9325 10.9071 10.9071 23.9325 10.9071 40Z" fill="#2F2E30"></path>
    <circle cx="40" cy="40" r="29" fill="black"></circle>
  </symbol>
  <symbol fill="none" xmlns="http://www.w3.org/2000/svg" viewBox="0 0 80 80" id="Services=Money back">
    <path opacity="0.3" d="M80 40C80 62.0914 62.0914 80 40 80C17.9086 80 0 62.0914 0 40C0 17.9086 17.9086 0 40 0C62.0914 0 80 17.9086 80 40ZM10.9071 40C10.9071 56.0675 23.9325 69.0929 40 69.0929C56.0675 69.0929 69.0929 56.0675 69.0929 40C69.0929 23.9325 56.0675 10.9071 40 10.9071C23.9325 10.9071 10.9071 23.9325 10.9071 40Z" fill="#2F2E30"></path>
    <circle cx="40" cy="40" r="29" fill="black"></circle>
    <path d="M39.9831 22.5875C41.0045 22.5875 42.0041 22.7358 42.7575 23.0172V23.0182L51.0749 26.1353H51.0759C53.2954 26.9621 55.0505 29.5077 55.0505 31.8668V44.2496C55.0505 45.3368 54.7063 46.5895 54.1237 47.7486C53.5777 48.8349 52.8403 49.8025 52.0309 50.4557L51.8679 50.5826L44.7009 55.9322L44.695 55.9371C43.4123 56.9262 41.7237 57.4332 39.9997 57.4332C38.277 57.4331 36.5846 56.9264 35.2643 55.9478H35.2634L28.0993 50.5992C27.2266 49.9485 26.4253 48.9209 25.8425 47.7594C25.2596 46.5977 24.9167 45.3448 24.9167 44.2662V31.8668C24.9167 29.5813 26.5634 27.1205 28.6843 26.2174L28.8913 26.1353H28.8923L37.2087 23.0182C37.9621 22.7366 38.9615 22.5875 39.9831 22.5875ZM40.0007 24.0855C39.3018 24.0875 38.5814 24.1702 37.988 24.3492L37.7419 24.4312L37.7409 24.4322L29.4245 27.5484H29.4235C28.596 27.86 27.8548 28.5225 27.3239 29.2906C26.7928 30.059 26.4333 30.9899 26.4333 31.8834V44.2662C26.4333 45.1607 26.7439 46.1894 27.2009 47.1012C27.6006 47.8987 28.1372 48.6562 28.739 49.1871L29.0007 49.401L36.1677 54.7506C37.2295 55.5445 38.6281 55.9253 40.0016 55.9254C41.2898 55.9254 42.6029 55.5903 43.6432 54.8951L43.8474 54.7516L43.8493 54.7506L51.0153 49.401L51.0163 49.4C51.731 48.8639 52.3666 48.005 52.822 47.0943C53.2773 46.1837 53.5837 45.1597 53.5837 44.2662V31.8668C53.5837 30.9808 53.2233 30.054 52.6931 29.2867C52.1958 28.5673 51.5142 27.938 50.7516 27.5982L50.5974 27.5338L50.5925 27.5318L42.2751 24.4146L42.2663 24.4117L42.0182 24.3326C41.4214 24.1621 40.7 24.0836 40.0007 24.0855Z" fill="#FAFAFA" stroke="#FAFAFA"></path>
    <path d="M44.4039 34.77C44.6739 34.5003 45.1154 34.4832 45.4068 34.7192L45.4635 34.77C45.7336 35.0402 45.7499 35.4824 45.5133 35.7739L45.4635 35.8296L38.2965 42.9966C38.1452 43.1478 37.9574 43.2163 37.7662 43.2163C37.5991 43.2162 37.4352 43.1637 37.2955 43.0493L37.2369 42.9966L34.5533 40.313C34.2835 40.043 34.2666 39.6015 34.5025 39.31L34.5533 39.2534C34.8234 38.9833 35.2657 38.9663 35.5572 39.2026L35.6129 39.2534L37.7662 41.4067L38.1207 41.0532L44.4039 34.77Z" fill="#FAFAFA" stroke="#FAFAFA"></path>
  </symbol>
  <symbol fill="none" xmlns="http://www.w3.org/2000/svg" viewBox="0 0 56 56" id="SmartWatch">
    <g clip-path="url(#clip0_138_1569)">
      <path d="M35 14H21C17.134 14 14 17.134 14 21V35C14 38.866 17.134 42 21 42H35C38.866 42 42 38.866 42 35V21C42 17.134 38.866 14 35 14Z" stroke="black" stroke-width="2" stroke-linecap="round" stroke-linejoin="round"></path>
      <path d="M21 42V49H35V42" stroke="black" stroke-width="2" stroke-linecap="round" stroke-linejoin="round"></path>
      <path d="M21 14V7H35V14" stroke="black" stroke-width="2" stroke-linecap="round" stroke-linejoin="round"></path>
      <line x1="24" y1="23" x2="24" y2="34" stroke="black" stroke-width="2" stroke-linecap="round"></line>
      <line x1="28" y1="28" x2="28" y2="34" stroke="black" stroke-width="2" stroke-linecap="round"></line>
      <line x1="32" y1="26" x2="32" y2="34" stroke="black" stroke-width="2" stroke-linecap="round"></line>
    </g>
    <defs>
      <clipPath id="clip0_138_1569">
        <rect width="56" height="56" fill="white"></rect>
      </clipPath>
    </defs>
  </symbol>
  <symbol fill="none" xmlns="http://www.w3.org/2000/svg" viewBox="0 0 20 20" id="star-half-filled">
    <path d="M9.99984 1.83335C9.75073 1.83151 9.50622 1.90038 9.29469 2.03196C9.08316 2.16354 8.9133 2.35242 8.80484 2.57668L6.95317 6.33002L2.80984 6.93168C2.56339 6.96719 2.33181 7.071 2.14133 7.23135C1.95084 7.3917 1.80907 7.60218 1.73205 7.83896C1.65503 8.07573 1.64585 8.32935 1.70555 8.57107C1.76525 8.8128 1.89144 9.03298 2.06984 9.20668L5.06984 12.1283L4.3615 16.255C4.31937 16.5001 4.34664 16.7522 4.44023 16.9826C4.53382 17.213 4.69 17.4127 4.89111 17.559C5.09223 17.7054 5.33027 17.7925 5.57833 17.8107C5.82639 17.8288 6.07457 17.7772 6.29484 17.6617L9.99984 15.7133V1.83335Z" fill="#FFAD33"></path>
    <path opacity="0.25" d="M10 1.83595C10.2491 1.83404 10.5001 2.00001 10.5001 2.00001C10.5001 2.00001 11.0866 2.20807 11.195 2.44195L13.0467 6.35634L17.1901 6.98383C17.4366 7.02086 17.6682 7.12912 17.8587 7.29635C18.0492 7.46358 18.1909 7.68309 18.268 7.93003C18.345 8.17697 18.3542 8.44147 18.2945 8.69357C18.2347 8.94567 18.1086 9.1753 17.9302 9.35645L14.9301 12.4035L15.6384 16.7072C15.6806 16.9629 15.6533 17.2257 15.5597 17.466C15.4661 17.7064 15.3099 17.9146 15.1088 18.0672C14.9077 18.2198 14.6697 18.3107 14.4216 18.3296C14.1735 18.3486 13.9253 18.2947 13.7051 18.1743L10 16.1423V1.83595Z" fill="black"></path>
  </symbol>
  <symbol fill="none" xmlns="http://www.w3.org/2000/svg" viewBox="0 0 100 20" id="Three Star (1)">
    <path d="M16.673 10.1717C17.7437 9.36184 17.1709 7.65517 15.8284 7.65517H13.3992C12.7853 7.65517 12.243 7.25521 12.0617 6.66868L11.3375 4.32637C10.9309 3.01106 9.0691 3.01106 8.66246 4.32637L7.93832 6.66868C7.75699 7.25521 7.21469 7.65517 6.60078 7.65517H4.12961C2.79142 7.65517 2.21592 9.35274 3.27822 10.1665L5.39469 11.7879C5.85885 12.1435 6.05314 12.7501 5.88196 13.3092L5.11296 15.8207C4.71416 17.1232 6.22167 18.1704 7.30301 17.342L9.14861 15.9281C9.65097 15.5432 10.349 15.5432 10.8514 15.9281L12.6807 17.3295C13.7636 18.159 15.2725 17.1079 14.8696 15.8046L14.09 13.2827C13.9159 12.7198 14.113 12.1081 14.5829 11.7526L16.673 10.1717Z" fill="#FFAD33"></path>
    <path d="M36.673 10.1717C37.7437 9.36184 37.1709 7.65517 35.8284 7.65517H33.3992C32.7853 7.65517 32.243 7.25521 32.0617 6.66868L31.3375 4.32637C30.9309 3.01106 29.0691 3.01106 28.6625 4.32637L27.9383 6.66868C27.757 7.25521 27.2147 7.65517 26.6008 7.65517H24.1296C22.7914 7.65517 22.2159 9.35274 23.2782 10.1665L25.3947 11.7879C25.8588 12.1435 26.0531 12.7501 25.882 13.3092L25.113 15.8207C24.7142 17.1232 26.2217 18.1704 27.303 17.342L29.1486 15.9281C29.651 15.5432 30.349 15.5432 30.8514 15.9281L32.6807 17.3295C33.7636 18.159 35.2725 17.1079 34.8696 15.8046L34.09 13.2827C33.9159 12.7198 34.113 12.1081 34.5829 11.7526L36.673 10.1717Z" fill="#FFAD33"></path>
    <path d="M56.673 10.1717C57.7437 9.36184 57.1709 7.65517 55.8284 7.65517H53.3992C52.7853 7.65517 52.243 7.25521 52.0617 6.66868L51.3375 4.32637C50.9309 3.01106 49.0691 3.01106 48.6625 4.32637L47.9383 6.66868C47.757 7.25521 47.2147 7.65517 46.6008 7.65517H44.1296C42.7914 7.65517 42.2159 9.35274 43.2782 10.1665L45.3947 11.7879C45.8588 12.1435 46.0531 12.7501 45.882 13.3092L45.113 15.8207C44.7142 17.1232 46.2217 18.1704 47.303 17.342L49.1486 15.9281C49.651 15.5432 50.349 15.5432 50.8514 15.9281L52.6807 17.3295C53.7636 18.159 55.2725 17.1079 54.8696 15.8046L54.09 13.2827C53.9159 12.7198 54.113 12.1081 54.5829 11.7526L56.673 10.1717Z" fill="#FFAD33"></path>
    <path opacity="0.25" d="M76.673 10.1717C77.7437 9.36184 77.1709 7.65517 75.8284 7.65517H73.3992C72.7853 7.65517 72.243 7.25521 72.0617 6.66868L71.3375 4.32637C70.9309 3.01106 69.0691 3.01106 68.6625 4.32637L67.9383 6.66868C67.757 7.25521 67.2147 7.65517 66.6008 7.65517H64.1296C62.7914 7.65517 62.2159 9.35274 63.2782 10.1665L65.3947 11.7879C65.8588 12.1435 66.0531 12.7501 65.882 13.3092L65.113 15.8207C64.7142 17.1232 66.2217 18.1704 67.303 17.342L69.1486 15.9281C69.651 15.5432 70.349 15.5432 70.8514 15.9281L72.6807 17.3295C73.7636 18.159 75.2725 17.1079 74.8696 15.8046L74.09 13.2827C73.9159 12.7198 74.113 12.1081 74.5829 11.7526L76.673 10.1717Z" fill="black"></path>
    <path opacity="0.25" d="M96.673 10.1717C97.7437 9.36184 97.1709 7.65517 95.8284 7.65517H93.3992C92.7853 7.65517 92.243 7.25521 92.0617 6.66868L91.3375 4.32637C90.9309 3.01106 89.0691 3.01106 88.6625 4.32637L87.9383 6.66868C87.757 7.25521 87.2147 7.65517 86.6008 7.65517H84.1296C82.7914 7.65517 82.2159 9.35274 83.2782 10.1665L85.3947 11.7879C85.8588 12.1435 86.0531 12.7501 85.882 13.3092L85.113 15.8207C84.7142 17.1232 86.2217 18.1704 87.303 17.342L89.1486 15.9281C89.651 15.5432 90.349 15.5432 90.8514 15.9281L92.6807 17.3295C93.7636 18.159 95.2725 17.1079 94.8696 15.8046L94.09 13.2827C93.9159 12.7198 94.113 12.1081 94.5829 11.7526L96.673 10.1717Z" fill="black"></path>
  </symbol>
  <symbol fill="none" xmlns="http://www.w3.org/2000/svg" viewBox="0 0 100 20" id="Three Star">
    <path d="M16.673 10.1717C17.7437 9.36184 17.1709 7.65517 15.8284 7.65517H13.3992C12.7853 7.65517 12.243 7.25521 12.0617 6.66868L11.3375 4.32637C10.9309 3.01106 9.0691 3.01106 8.66246 4.32637L7.93832 6.66868C7.75699 7.25521 7.21469 7.65517 6.60078 7.65517H4.12961C2.79142 7.65517 2.21592 9.35274 3.27822 10.1665L5.39469 11.7879C5.85885 12.1435 6.05314 12.7501 5.88196 13.3092L5.11296 15.8207C4.71416 17.1232 6.22167 18.1704 7.30301 17.342L9.14861 15.9281C9.65097 15.5432 10.349 15.5432 10.8514 15.9281L12.6807 17.3295C13.7636 18.159 15.2725 17.1079 14.8696 15.8046L14.09 13.2827C13.9159 12.7198 14.113 12.1081 14.5829 11.7526L16.673 10.1717Z" fill="#FFAD33"></path>
    <path d="M36.673 10.1717C37.7437 9.36184 37.1709 7.65517 35.8284 7.65517H33.3992C32.7853 7.65517 32.243 7.25521 32.0617 6.66868L31.3375 4.32637C30.9309 3.01106 29.0691 3.01106 28.6625 4.32637L27.9383 6.66868C27.757 7.25521 27.2147 7.65517 26.6008 7.65517H24.1296C22.7914 7.65517 22.2159 9.35274 23.2782 10.1665L25.3947 11.7879C25.8588 12.1435 26.0531 12.7501 25.882 13.3092L25.113 15.8207C24.7142 17.1232 26.2217 18.1704 27.303 17.342L29.1486 15.9281C29.651 15.5432 30.349 15.5432 30.8514 15.9281L32.6807 17.3295C33.7636 18.159 35.2725 17.1079 34.8696 15.8046L34.09 13.2827C33.9159 12.7198 34.113 12.1081 34.5829 11.7526L36.673 10.1717Z" fill="#FFAD33"></path>
    <path opacity="0.25" d="M56.673 10.1717C57.7437 9.36184 57.1709 7.65517 55.8284 7.65517H53.3992C52.7853 7.65517 52.243 7.25521 52.0617 6.66868L51.3375 4.32637C50.9309 3.01106 49.0691 3.01106 48.6625 4.32637L47.9383 6.66868C47.757 7.25521 47.2147 7.65517 46.6008 7.65517H44.1296C42.7914 7.65517 42.2159 9.35274 43.2782 10.1665L45.3947 11.7879C45.8588 12.1435 46.0531 12.7501 45.882 13.3092L45.113 15.8207C44.7142 17.1232 46.2217 18.1704 47.303 17.342L49.1486 15.9281C49.651 15.5432 50.349 15.5432 50.8514 15.9281L52.6807 17.3295C53.7636 18.159 55.2725 17.1079 54.8696 15.8046L54.09 13.2827C53.9159 12.7198 54.113 12.1081 54.5829 11.7526L56.673 10.1717Z" fill="black"></path>
    <path opacity="0.25" d="M76.673 10.1717C77.7437 9.36184 77.1709 7.65517 75.8284 7.65517H73.3992C72.7853 7.65517 72.243 7.25521 72.0617 6.66868L71.3375 4.32637C70.9309 3.01106 69.0691 3.01106 68.6625 4.32637L67.9383 6.66868C67.757 7.25521 67.2147 7.65517 66.6008 7.65517H64.1296C62.7914 7.65517 62.2159 9.35274 63.2782 10.1665L65.3947 11.7879C65.8588 12.1435 66.0531 12.7501 65.882 13.3092L65.113 15.8207C64.7142 17.1232 66.2217 18.1704 67.303 17.342L69.1486 15.9281C69.651 15.5432 70.349 15.5432 70.8514 15.9281L72.6807 17.3295C73.7636 18.159 75.2725 17.1079 74.8696 15.8046L74.09 13.2827C73.9159 12.7198 74.113 12.1081 74.5829 11.7526L76.673 10.1717Z" fill="black"></path>
    <path opacity="0.25" d="M96.673 10.1717C97.7437 9.36184 97.1709 7.65517 95.8284 7.65517H93.3992C92.7853 7.65517 92.243 7.25521 92.0617 6.66868L91.3375 4.32637C90.9309 3.01106 89.0691 3.01106 88.6625 4.32637L87.9383 6.66868C87.757 7.25521 87.2147 7.65517 86.6008 7.65517H84.1296C82.7914 7.65517 82.2159 9.35274 83.2782 10.1665L85.3947 11.7879C85.8588 12.1435 86.0531 12.7501 85.882 13.3092L85.113 15.8207C84.7142 17.1232 86.2217 18.1704 87.303 17.342L89.1486 15.9281C89.651 15.5432 90.349 15.5432 90.8514 15.9281L92.6807 17.3295C93.7636 18.159 95.2725 17.1079 94.8696 15.8046L94.09 13.2827C93.9159 12.7198 94.113 12.1081 94.5829 11.7526L96.673 10.1717Z" fill="black"></path>
  </symbol>
  <symbol fill="none" xmlns="http://www.w3.org/2000/svg" viewBox="0 0 32 32" id="User=Off">
    <path d="M24 27V24.3333C24 22.9188 23.5224 21.5623 22.6722 20.5621C21.8221 19.5619 20.669 19 19.4667 19H11.5333C10.331 19 9.17795 19.5619 8.32778 20.5621C7.47762 21.5623 7 22.9188 7 24.3333V27" stroke="black" stroke-width="1.5" stroke-linecap="round" stroke-linejoin="round"></path>
    <path d="M16.5 14C18.9853 14 21 11.9853 21 9.5C21 7.01472 18.9853 5 16.5 5C14.0147 5 12 7.01472 12 9.5C12 11.9853 14.0147 14 16.5 14Z" stroke="black" stroke-width="1.5" stroke-linecap="round" stroke-linejoin="round"></path>
  </symbol>
  <symbol fill="none" xmlns="http://www.w3.org/2000/svg" viewBox="0 0 32 32" id="User=On">
    <rect width="32" height="32" rx="16" fill="#DB4444"></rect>
    <path d="M21 23V21.3333C21 20.4493 20.691 19.6014 20.1408 18.9763C19.5907 18.3512 18.8446 18 18.0667 18H12.9333C12.1554 18 11.4093 18.3512 10.8592 18.9763C10.309 19.6014 10 20.4493 10 21.3333V23" stroke="white" stroke-width="1.5" stroke-linecap="round" stroke-linejoin="round"></path>
    <path d="M16 15C17.6569 15 19 13.6569 19 12C19 10.3431 17.6569 9 16 9C14.3431 9 13 10.3431 13 12C13 13.6569 14.3431 15 16 15Z" stroke="white" stroke-width="1.5" stroke-linecap="round" stroke-linejoin="round"></path>
  </symbol>
  <symbol fill="none" xmlns="http://www.w3.org/2000/svg" viewBox="0 0 32 32" id="Wishlist=Off">
    <path d="M11 7C8.239 7 6 9.216 6 11.95C6 14.157 6.875 19.395 15.488 24.69C15.6423 24.7839 15.8194 24.8335 16 24.8335C16.1806 24.8335 16.3577 24.7839 16.512 24.69C25.125 19.395 26 14.157 26 11.95C26 9.216 23.761 7 21 7C18.239 7 16 10 16 10C16 10 13.761 7 11 7Z" stroke="black" stroke-width="1.5" stroke-linecap="round" stroke-linejoin="round"></path>
  </symbol>
</svg>